<svg width="15" height="16" viewBox="0 0 15 16" fill="none" xmlns="http://www.w3.org/2000/svg">
<g id="maki:arrow">
<path id="Vector" d="M8.293 2.79279C8.48053 2.60532 8.73484 2.5 9 2.5C9.26516 2.5 9.51947 2.60532 9.707 2.79279L14.207 7.29279C14.3945 7.48031 14.4998 7.73462 14.4998 7.99979C14.4998 8.26495 14.3945 8.51926 14.207 8.70679L9.707 13.2068C9.5184 13.3889 9.2658 13.4897 9.0036 13.4875C8.7414 13.4852 8.49059 13.38 8.30518 13.1946C8.11977 13.0092 8.0146 12.7584 8.01233 12.4962C8.01005 12.234 8.11084 11.9814 8.293 11.7928L11 8.99979H1.5C1.23478 8.99979 0.98043 8.89443 0.792893 8.70689C0.605357 8.51936 0.5 8.265 0.5 7.99979C0.5 7.73457 0.605357 7.48022 0.792893 7.29268C0.98043 7.10514 1.23478 6.99979 1.5 6.99979H11L8.293 4.20679C8.10553 4.01926 8.00021 3.76495 8.00021 3.49979C8.00021 3.23462 8.10553 2.98031 8.293 2.79279Z" fill="#A5A3AF"/>
</g>
</svg>
