<svg width="98" height="54" viewBox="0 0 98 54" fill="none" xmlns="http://www.w3.org/2000/svg">
<g clip-path="url(#clip0_1007_1451)">
<path d="M52.5079 36.8344C51.5545 37.4188 50.4626 37.711 49.2323 37.711C47.8789 37.711 46.5717 37.3727 45.3107 36.696C44.0803 35.9886 43.0961 34.9889 42.3579 33.6971C41.6197 32.4053 41.3122 30.9289 41.4352 29.268L41.6659 28.1607C41.8504 27.0535 42.0042 26.2384 42.1272 25.7155C42.4041 24.5775 42.9577 23.7778 43.7881 23.3164C44.6186 22.855 45.7259 22.4859 47.11 22.2091C48.0019 22.0246 48.8785 21.9323 49.7398 21.9323C52.4464 21.9323 54.7225 22.8397 56.568 24.6544C57.5522 25.6386 58.0443 26.8382 58.0443 28.253C58.0443 29.6371 57.5368 31.1288 56.5218 32.7282C55.353 34.5429 54.0151 35.9117 52.5079 36.8344ZM48.6325 24.2853C48.1404 25.4848 47.6175 26.9766 47.0638 28.7605L46.6025 30.1446L46.9254 30.283C46.9254 30.4983 46.9254 30.8367 46.9254 31.298C46.9562 31.7286 47.0177 32.0977 47.11 32.4053C47.4483 33.3588 47.8328 33.9432 48.2634 34.1585C48.4479 34.2507 48.7094 34.2046 49.0477 34.0201C49.4168 33.8355 49.7398 33.6202 50.0166 33.3742C50.4472 33.0051 51.1392 32.2361 52.0927 31.0673C52.8001 30.2676 53.1539 29.3141 53.1539 28.2069C53.1539 27.2534 52.877 26.3922 52.3234 25.6232C51.8005 24.8543 51.0623 24.3314 50.1088 24.0546C50.0166 24.0238 49.8474 24.0085 49.6013 24.0085C49.0169 24.0085 48.694 24.1007 48.6325 24.2853ZM86.0488 28.6221C86.0796 28.3145 86.0949 27.8378 86.0949 27.1919C86.1257 26.9766 86.1411 26.6229 86.1411 26.1307L85.0799 27.1457C84.188 27.9762 83.4959 28.5913 83.0038 28.9912C82.2964 29.5141 81.6812 29.7601 81.1583 29.7294C79.9588 29.6371 78.9284 29.391 78.0672 28.9912C77.2367 28.5606 76.6062 27.8378 76.1756 26.8228L74.2379 22.1169C74.2071 22.1476 74.1148 22.2553 73.961 22.4398C73.838 22.5936 73.7457 22.7628 73.6842 22.9473C72.3309 26.1769 70.9468 29.6217 69.5319 33.2819C68.7322 35.3426 68.0402 37.388 67.4558 39.418C67.302 39.9409 67.0406 40.31 66.6715 40.5253C66.3331 40.7406 65.8872 40.8483 65.3335 40.8483C64.4416 40.8483 63.5957 40.5253 62.796 39.8794C62.0271 39.2335 61.6426 38.4492 61.6426 37.5264C61.6426 37.1881 61.7195 36.819 61.8733 36.4192C62.55 34.6352 63.0421 33.2973 63.3497 32.4053C64.9183 28.1915 66.2563 24.8082 67.3635 22.2553C68.5016 19.6716 69.901 17.1803 71.5619 14.7812C72.2079 13.8277 72.6231 13.2587 72.8076 13.0741C73.3613 12.3974 74.0533 12.0591 74.8838 12.0591C75.0683 12.0591 75.3144 12.0899 75.622 12.1514C76.883 12.3974 77.7289 12.6281 78.1595 12.8434C78.6208 13.028 78.9284 13.3509 79.0822 13.8123C79.2667 14.2429 79.4667 15.0887 79.682 16.3498L80.5124 22.2091C81.1583 21.84 81.8811 21.2403 82.6808 20.4098C83.5113 19.5486 84.2956 18.5951 85.0338 17.5493C84.9415 17.6724 85.4183 17.0572 86.464 15.7039C86.8024 15.304 87.2791 14.7043 87.8943 13.9046C88.4171 13.1664 89.1092 12.7973 89.9704 12.7973C90.278 12.7973 90.5856 12.8434 90.8931 12.9357C92.0004 13.1818 92.8001 13.5508 93.2922 14.043C93.7844 14.5351 94.0304 15.2425 94.0304 16.1652C94.0304 16.7189 93.9689 17.2879 93.8459 17.8723L92.877 22.6705C91.7082 28.6375 91.0623 31.9901 90.9393 32.7282L89.4629 41.3096C89.2476 42.786 88.8939 44.9698 88.4018 47.861C88.371 48.1993 88.2634 48.6761 88.0788 49.2912C87.9865 49.5681 87.8481 50.0448 87.6636 50.7215C87.479 51.3981 87.356 51.9979 87.2945 52.5208C87.233 53.0437 87.0792 53.4281 86.8331 53.6742C86.5871 53.951 86.218 54.1048 85.7258 54.1356C85.1415 54.1663 84.6647 54.0279 84.2956 53.7203C83.9265 53.4435 83.7266 53.0283 83.6958 52.4747L83.6497 49.4297C83.6497 48.4146 83.6958 47.3996 83.7881 46.3846C84.188 42.8168 84.6493 39.2027 85.1722 35.5426L86.0488 28.6221Z" fill="white"/>
<path d="M8.7739 24.7894C8.8015 24.5737 8.88073 24.2286 9.01159 23.7542C9.33056 22.5979 9.75996 21.5039 10.2998 20.4722C10.8396 19.4406 11.5118 18.3338 12.3164 17.1519C13.0965 16.0589 14.2769 15.0764 15.8575 14.2042C17.4382 13.332 19.1057 12.7232 20.8602 12.3775C22.6228 12.0023 24.1268 11.9864 25.3721 12.3299C26.6471 12.6816 27.7615 13.4995 28.7155 14.7836C29.6776 16.0381 30.1582 17.3034 30.1572 18.5793C30.1183 18.9515 30.0825 19.1969 30.0498 19.3155C29.9271 19.7602 29.6997 20.0644 29.3674 20.228C29.0729 20.3701 28.7181 20.3839 28.303 20.2694C27.9769 20.1795 27.7289 20.0951 27.5592 20.0164C27.4703 19.9919 27.3532 19.8958 27.208 19.7281C26.479 19.0165 25.7142 18.5503 24.9137 18.3295C23.4015 17.9124 21.6874 18.2851 19.7714 19.4476C16.5233 21.3913 14.3962 24.1866 13.3902 27.8336C13.0303 29.1382 12.8162 30.4352 12.7477 31.7244C12.668 33.1701 12.9088 34.3214 13.4701 35.1781C14.0692 36.0134 15.0063 36.6069 16.2813 36.9586C16.726 37.0813 17.2275 37.1718 17.7858 37.2301C19.7192 37.5081 21.5943 37.4191 23.4111 36.9631C25.2361 36.4774 27.306 35.7402 29.6207 34.7515C30.1636 34.5183 31.1538 33.9938 32.5913 33.1779L33.7385 32.4893C34.2302 32.2101 34.63 32.0333 34.9378 31.9586C35.2833 31.8625 35.5747 31.8472 35.8119 31.9126C36.1974 32.0189 36.6186 32.3425 37.0757 32.8834C37.5756 33.4999 37.7316 34.1491 37.5434 34.831C37.4126 35.3055 37.1268 35.7052 36.6862 36.0304C36.5103 36.2052 36.0492 36.6045 35.3029 37.2282C34.5647 37.8222 33.8618 38.3462 33.1942 38.8002C32.5265 39.2541 31.8834 39.6192 31.2649 39.8952C27.8746 41.5445 24.5824 42.3752 21.3884 42.3876C19.9856 42.3835 18.6319 42.2015 17.3273 41.8417C14.9256 41.1792 12.9585 39.9825 11.4258 38.2516C9.92283 36.5288 8.92235 34.5459 8.42439 32.3027C7.9346 30.0299 7.96932 27.822 8.52854 25.679L8.7739 24.7894Z" fill="white"/>
<path d="M47.5956 14.8787C46.9836 12.176 43.3727 9.23768 41.5659 8.08546C40.8527 7.63063 39.8253 8.03663 38.8828 14.0473C38.0785 19.1765 40.4127 20.804 40.8802 20.9293C43.7818 14.7754 47.817 15.8567 47.5956 14.8787Z" fill="white"/>
<path d="M54.7336 14.8391C55.6681 12.2303 59.608 9.75056 61.5411 8.82548C62.3041 8.46031 63.2748 8.98766 63.4829 15.0682C63.6605 20.257 61.1465 21.5901 60.6673 21.6579C58.5318 15.1981 54.3954 15.783 54.7336 14.8391Z" fill="white"/>
</g>
<defs>
<clipPath id="clip0_1007_1451">
<rect width="97.2224" height="54" fill="white"/>
</clipPath>
</defs>
</svg>
