<?xml version="1.0" encoding="us-ascii" standalone="no"?><svg xmlns="http://www.w3.org/2000/svg" xmlns:xlink="http://www.w3.org/1999/xlink" contentStyleType="text/css" height="2898px" preserveAspectRatio="none" style="width:1882px;height:2898px;background:#FFFFFF;" version="1.1" viewBox="0 0 1882 2898" width="1882px" zoomAndPan="magnify"><defs/><g><text fill="#000000" font-family="sans-serif" font-size="14" font-weight="bold" lengthAdjust="spacing" textLength="569" x="655.5" y="28.5352">0x15e6f44c0b666c189a2e1e5ffd59a86629188d7bbbbb25683b0cd89e28c6a4dd</text><text fill="#000000" font-family="sans-serif" font-size="14" lengthAdjust="spacing" textLength="397" x="741.5" y="2886.3027">custom, block 27884608, Sat, 18 Nov 2023 22:31:48 GMT</text><rect fill="#FFFFFF" height="2122.9863" style="stroke:#181818;stroke-width:1.0;" width="10" x="350.5" y="369.3242"/><rect fill="#FFFFFF" height="29.3105" style="stroke:#181818;stroke-width:1.0;" width="10" x="654.5" y="459.877"/><rect fill="#FFFFFF" height="365.5898" style="stroke:#181818;stroke-width:1.0;" width="10" x="784.5" y="640.9824"/><rect fill="#FFFFFF" height="1129.459" style="stroke:#181818;stroke-width:1.0;" width="10" x="784.5" y="1298.2305"/><rect fill="#FFFFFF" height="149.1738" style="stroke:#181818;stroke-width:1.0;" width="10" x="1105.5" y="777.4668"/><rect fill="#FFFFFF" height="149.1738" style="stroke:#181818;stroke-width:1.0;" width="10" x="1105.5" y="1633.1992"/><rect fill="#FFFFFF" height="227.7949" style="stroke:#181818;stroke-width:1.0;" width="10" x="1105.5" y="2119.9629"/><rect fill="#FFFFFF" height="44.6211" style="stroke:#181818;stroke-width:1.0;" width="10" x="1455.5" y="852.709"/><rect fill="#FFFFFF" height="44.6211" style="stroke:#181818;stroke-width:1.0;" width="10" x="1455.5" y="1708.4414"/><rect fill="#FFFFFF" height="29.3105" style="stroke:#181818;stroke-width:1.0;" width="10" x="1579.5" y="1117.125"/><rect fill="#FFFFFF" height="29.3105" style="stroke:#181818;stroke-width:1.0;" width="10" x="1579.5" y="1923.5469"/><rect fill="#FFFFFF" height="103.2422" style="stroke:#181818;stroke-width:1.0;" width="10" x="1701.5" y="1342.8516"/><rect fill="#FFFFFF" height="103.2422" style="stroke:#181818;stroke-width:1.0;" width="10" x="1701.5" y="2164.584"/><rect fill="#FFFFFF" height="29.3105" style="stroke:#181818;stroke-width:1.0;" width="10" x="1818" y="1387.4727"/><rect fill="#FFFFFF" height="29.3105" style="stroke:#181818;stroke-width:1.0;" width="10" x="1818" y="2209.2051"/><line style="stroke:#181818;stroke-width:0.5;stroke-dasharray:5.0,5.0;" x1="83" x2="83" y1="118.9766" y2="2795.2793"/><line style="stroke:#181818;stroke-width:0.5;stroke-dasharray:5.0,5.0;" x1="355.5" x2="355.5" y1="118.9766" y2="2795.2793"/><line style="stroke:#181818;stroke-width:0.5;stroke-dasharray:5.0,5.0;" x1="659" x2="659" y1="118.9766" y2="2795.2793"/><line style="stroke:#181818;stroke-width:0.5;stroke-dasharray:5.0,5.0;" x1="789.5" x2="789.5" y1="118.9766" y2="2795.2793"/><line style="stroke:#181818;stroke-width:0.5;stroke-dasharray:5.0,5.0;" x1="1110.5" x2="1110.5" y1="118.9766" y2="2795.2793"/><line style="stroke:#181818;stroke-width:0.5;stroke-dasharray:5.0,5.0;" x1="1460.5" x2="1460.5" y1="118.9766" y2="2795.2793"/><line style="stroke:#181818;stroke-width:0.5;stroke-dasharray:5.0,5.0;" x1="1584.5" x2="1584.5" y1="118.9766" y2="2795.2793"/><line style="stroke:#181818;stroke-width:0.5;stroke-dasharray:5.0,5.0;" x1="1706" x2="1706" y1="118.9766" y2="2795.2793"/><line style="stroke:#181818;stroke-width:0.5;stroke-dasharray:5.0,5.0;" x1="1823" x2="1823" y1="118.9766" y2="2795.2793"/><text fill="#000000" font-family="sans-serif" font-size="14" lengthAdjust="spacing" textLength="91" x="35" y="116.0234">0xf1bd..a51c</text><ellipse cx="83.5" cy="50.9883" fill="#E2E2F0" rx="8" ry="8" style="stroke:#181818;stroke-width:0.5;"/><path d="M83.5,58.9883 L83.5,85.9883 M70.5,66.9883 L96.5,66.9883 M83.5,85.9883 L70.5,100.9883 M83.5,85.9883 L96.5,100.9883 " fill="none" style="stroke:#181818;stroke-width:0.5;"/><text fill="#000000" font-family="sans-serif" font-size="14" lengthAdjust="spacing" textLength="91" x="35" y="2807.8145">0xf1bd..a51c</text><ellipse cx="83.5" cy="2819.2676" fill="#E2E2F0" rx="8" ry="8" style="stroke:#181818;stroke-width:0.5;"/><path d="M83.5,2827.2676 L83.5,2854.2676 M70.5,2835.2676 L96.5,2835.2676 M83.5,2854.2676 L70.5,2869.2676 M83.5,2854.2676 L96.5,2869.2676 " fill="none" style="stroke:#181818;stroke-width:0.5;"/><rect fill="#E2E2F0" height="46.9766" rx="2.5" ry="2.5" style="stroke:#181818;stroke-width:0.5;" width="166" x="272.5" y="71"/><text fill="#000000" font-family="sans-serif" font-size="14" font-style="italic" lengthAdjust="spacing" textLength="152" x="279.5" y="91.5352">&#171;CrossChainSwapper&#187;</text><text fill="#000000" font-family="sans-serif" font-size="14" lengthAdjust="spacing" textLength="94" x="308.5" y="108.0234">0xa882..ca74</text><rect fill="#E2E2F0" height="46.9766" rx="2.5" ry="2.5" style="stroke:#181818;stroke-width:0.5;" width="166" x="272.5" y="2794.2793"/><text fill="#000000" font-family="sans-serif" font-size="14" font-style="italic" lengthAdjust="spacing" textLength="152" x="279.5" y="2814.8145">&#171;CrossChainSwapper&#187;</text><text fill="#000000" font-family="sans-serif" font-size="14" lengthAdjust="spacing" textLength="94" x="308.5" y="2831.3027">0xa882..ca74</text><rect fill="#E2E2F0" height="46.9766" rx="2.5" ry="2.5" style="stroke:#181818;stroke-width:0.5;" width="109" x="605" y="71"/><text fill="#000000" font-family="sans-serif" font-size="14" font-style="italic" lengthAdjust="spacing" textLength="95" x="612" y="91.5352">&#171;MockERC20&#187;</text><text fill="#000000" font-family="sans-serif" font-size="14" lengthAdjust="spacing" textLength="91" x="614" y="108.0234">0xa3c2..f1b2</text><rect fill="#E2E2F0" height="46.9766" rx="2.5" ry="2.5" style="stroke:#181818;stroke-width:0.5;" width="109" x="605" y="2794.2793"/><text fill="#000000" font-family="sans-serif" font-size="14" font-style="italic" lengthAdjust="spacing" textLength="95" x="612" y="2814.8145">&#171;MockERC20&#187;</text><text fill="#000000" font-family="sans-serif" font-size="14" lengthAdjust="spacing" textLength="91" x="614" y="2831.3027">0xa3c2..f1b2</text><rect fill="#E2E2F0" height="46.9766" rx="2.5" ry="2.5" style="stroke:#181818;stroke-width:0.5;" width="112" x="733.5" y="71"/><text fill="#000000" font-family="sans-serif" font-size="14" font-style="italic" lengthAdjust="spacing" textLength="60" x="759.5" y="91.5352">&#171;Router&#187;</text><text fill="#000000" font-family="sans-serif" font-size="14" lengthAdjust="spacing" textLength="98" x="740.5" y="108.0234">0x5544..82d8</text><rect fill="#E2E2F0" height="46.9766" rx="2.5" ry="2.5" style="stroke:#181818;stroke-width:0.5;" width="112" x="733.5" y="2794.2793"/><text fill="#000000" font-family="sans-serif" font-size="14" font-style="italic" lengthAdjust="spacing" textLength="60" x="759.5" y="2814.8145">&#171;Router&#187;</text><text fill="#000000" font-family="sans-serif" font-size="14" lengthAdjust="spacing" textLength="98" x="740.5" y="2831.3027">0x5544..82d8</text><rect fill="#E2E2F0" height="46.9766" rx="2.5" ry="2.5" style="stroke:#181818;stroke-width:0.5;" width="154" x="1033.5" y="71"/><text fill="#000000" font-family="sans-serif" font-size="14" font-style="italic" lengthAdjust="spacing" textLength="140" x="1040.5" y="91.5352">&#171;EVM2EVMOnRamp&#187;</text><text fill="#000000" font-family="sans-serif" font-size="14" lengthAdjust="spacing" textLength="93" x="1064" y="108.0234">0xa799..aec4</text><rect fill="#E2E2F0" height="46.9766" rx="2.5" ry="2.5" style="stroke:#181818;stroke-width:0.5;" width="154" x="1033.5" y="2794.2793"/><text fill="#000000" font-family="sans-serif" font-size="14" font-style="italic" lengthAdjust="spacing" textLength="140" x="1040.5" y="2814.8145">&#171;EVM2EVMOnRamp&#187;</text><text fill="#000000" font-family="sans-serif" font-size="14" lengthAdjust="spacing" textLength="93" x="1064" y="2831.3027">0xa799..aec4</text><rect fill="#E2E2F0" height="46.9766" rx="2.5" ry="2.5" style="stroke:#181818;stroke-width:0.5;" width="116" x="1402.5" y="71"/><text fill="#000000" font-family="sans-serif" font-size="14" font-style="italic" lengthAdjust="spacing" textLength="102" x="1409.5" y="91.5352">&#171;PriceRegistry&#187;</text><text fill="#000000" font-family="sans-serif" font-size="14" lengthAdjust="spacing" textLength="92" x="1414.5" y="108.0234">0xe42e..48df</text><rect fill="#E2E2F0" height="46.9766" rx="2.5" ry="2.5" style="stroke:#181818;stroke-width:0.5;" width="116" x="1402.5" y="2794.2793"/><text fill="#000000" font-family="sans-serif" font-size="14" font-style="italic" lengthAdjust="spacing" textLength="102" x="1409.5" y="2814.8145">&#171;PriceRegistry&#187;</text><text fill="#000000" font-family="sans-serif" font-size="14" lengthAdjust="spacing" textLength="92" x="1414.5" y="2831.3027">0xe42e..48df</text><rect fill="#E2E2F0" height="46.9766" rx="2.5" ry="2.5" style="stroke:#181818;stroke-width:0.5;" width="112" x="1528.5" y="71"/><text fill="#000000" font-family="sans-serif" font-size="14" font-style="italic" lengthAdjust="spacing" textLength="85" x="1542" y="91.5352">&#171;LinkToken&#187;</text><text fill="#000000" font-family="sans-serif" font-size="14" lengthAdjust="spacing" textLength="98" x="1535.5" y="108.0234">0x0b9d..7846</text><rect fill="#E2E2F0" height="46.9766" rx="2.5" ry="2.5" style="stroke:#181818;stroke-width:0.5;" width="112" x="1528.5" y="2794.2793"/><text fill="#000000" font-family="sans-serif" font-size="14" font-style="italic" lengthAdjust="spacing" textLength="85" x="1542" y="2814.8145">&#171;LinkToken&#187;</text><text fill="#000000" font-family="sans-serif" font-size="14" lengthAdjust="spacing" textLength="98" x="1535.5" y="2831.3027">0x0b9d..7846</text><rect fill="#E2E2F0" height="46.9766" rx="2.5" ry="2.5" style="stroke:#181818;stroke-width:0.5;" width="107" x="1653" y="71"/><text fill="#000000" font-family="sans-serif" font-size="14" font-style="italic" lengthAdjust="spacing" textLength="84" x="1664.5" y="91.5352">&#171;ARMProxy&#187;</text><text fill="#000000" font-family="sans-serif" font-size="14" lengthAdjust="spacing" textLength="93" x="1660" y="108.0234">0xac8c..821b</text><rect fill="#E2E2F0" height="46.9766" rx="2.5" ry="2.5" style="stroke:#181818;stroke-width:0.5;" width="107" x="1653" y="2794.2793"/><text fill="#000000" font-family="sans-serif" font-size="14" font-style="italic" lengthAdjust="spacing" textLength="84" x="1664.5" y="2814.8145">&#171;ARMProxy&#187;</text><text fill="#000000" font-family="sans-serif" font-size="14" lengthAdjust="spacing" textLength="93" x="1660" y="2831.3027">0xac8c..821b</text><rect fill="#E2E2F0" height="46.9766" rx="2.5" ry="2.5" style="stroke:#181818;stroke-width:0.5;" width="106" x="1770" y="71"/><text fill="#000000" font-family="sans-serif" font-size="14" font-style="italic" lengthAdjust="spacing" textLength="45" x="1800.5" y="91.5352">&#171;ARM&#187;</text><text fill="#000000" font-family="sans-serif" font-size="14" lengthAdjust="spacing" textLength="92" x="1777" y="108.0234">0x0ea0..158f</text><rect fill="#E2E2F0" height="46.9766" rx="2.5" ry="2.5" style="stroke:#181818;stroke-width:0.5;" width="106" x="1770" y="2794.2793"/><text fill="#000000" font-family="sans-serif" font-size="14" font-style="italic" lengthAdjust="spacing" textLength="45" x="1800.5" y="2814.8145">&#171;ARM&#187;</text><text fill="#000000" font-family="sans-serif" font-size="14" lengthAdjust="spacing" textLength="92" x="1777" y="2831.3027">0x0ea0..158f</text><rect fill="#FFFFFF" height="2122.9863" style="stroke:#181818;stroke-width:1.0;" width="10" x="350.5" y="369.3242"/><rect fill="#FFFFFF" height="29.3105" style="stroke:#181818;stroke-width:1.0;" width="10" x="654.5" y="459.877"/><rect fill="#FFFFFF" height="365.5898" style="stroke:#181818;stroke-width:1.0;" width="10" x="784.5" y="640.9824"/><rect fill="#FFFFFF" height="1129.459" style="stroke:#181818;stroke-width:1.0;" width="10" x="784.5" y="1298.2305"/><rect fill="#FFFFFF" height="149.1738" style="stroke:#181818;stroke-width:1.0;" width="10" x="1105.5" y="777.4668"/><rect fill="#FFFFFF" height="149.1738" style="stroke:#181818;stroke-width:1.0;" width="10" x="1105.5" y="1633.1992"/><rect fill="#FFFFFF" height="227.7949" style="stroke:#181818;stroke-width:1.0;" width="10" x="1105.5" y="2119.9629"/><rect fill="#FFFFFF" height="44.6211" style="stroke:#181818;stroke-width:1.0;" width="10" x="1455.5" y="852.709"/><rect fill="#FFFFFF" height="44.6211" style="stroke:#181818;stroke-width:1.0;" width="10" x="1455.5" y="1708.4414"/><rect fill="#FFFFFF" height="29.3105" style="stroke:#181818;stroke-width:1.0;" width="10" x="1579.5" y="1117.125"/><rect fill="#FFFFFF" height="29.3105" style="stroke:#181818;stroke-width:1.0;" width="10" x="1579.5" y="1923.5469"/><rect fill="#FFFFFF" height="103.2422" style="stroke:#181818;stroke-width:1.0;" width="10" x="1701.5" y="1342.8516"/><rect fill="#FFFFFF" height="103.2422" style="stroke:#181818;stroke-width:1.0;" width="10" x="1701.5" y="2164.584"/><rect fill="#FFFFFF" height="29.3105" style="stroke:#181818;stroke-width:1.0;" width="10" x="1818" y="1387.4727"/><rect fill="#FFFFFF" height="29.3105" style="stroke:#181818;stroke-width:1.0;" width="10" x="1818" y="2209.2051"/><path d="M5,133.9766 L5,250.9766 L163,250.9766 L163,143.9766 L153,133.9766 L5,133.9766 " fill="#FEFFDD" style="stroke:#181818;stroke-width:0.5;"/><path d="M153,133.9766 L153,143.9766 L163,143.9766 L153,133.9766 " fill="#FEFFDD" style="stroke:#181818;stroke-width:0.5;"/><text fill="#000000" font-family="sans-serif" font-size="13" lengthAdjust="spacing" textLength="72" x="11" y="151.5449">Nonce: 129</text><text fill="#000000" font-family="sans-serif" font-size="13" lengthAdjust="spacing" textLength="127" x="11" y="166.8555">Gas Price: 26.5 Gwei</text><text fill="#000000" font-family="sans-serif" font-size="13" lengthAdjust="spacing" textLength="121" x="11" y="182.166">Max Fee: 51.5 Gwei</text><text fill="#000000" font-family="sans-serif" font-size="13" lengthAdjust="spacing" textLength="137" x="11" y="197.4766">Max Priority: 1.5 Gwei</text><text fill="#000000" font-family="sans-serif" font-size="13" lengthAdjust="spacing" textLength="131" x="11" y="212.7871">Gas Limit: 1,000,000</text><text fill="#000000" font-family="sans-serif" font-size="13" lengthAdjust="spacing" textLength="118" x="11" y="228.0977">Gas Used: 195,889</text><text fill="#000000" font-family="sans-serif" font-size="13" lengthAdjust="spacing" textLength="114" x="11" y="243.4082">Tx Fee: 0.005 ETH</text><polygon fill="#181818" points="338.5,365.3242,348.5,369.3242,338.5,373.3242,342.5,369.3242" style="stroke:#181818;stroke-width:1.0;"/><line style="stroke:#181818;stroke-width:1.0;" x1="83.5" x2="344.5" y1="369.3242" y2="369.3242"/><text fill="#000000" font-family="sans-serif" font-size="13" lengthAdjust="spacing" textLength="63" x="90.5" y="272.7188">takeSwap(</text><text fill="#000000" font-family="sans-serif" font-size="13" lengthAdjust="spacing" textLength="178" x="98.5" y="288.0293">sourceToken: 0xa3C2..f1b2,</text><text fill="#000000" font-family="sans-serif" font-size="13" lengthAdjust="spacing" textLength="210" x="98.5" y="303.3398">destinationToken: 0x84d7..9495,</text><text fill="#000000" font-family="sans-serif" font-size="13" lengthAdjust="spacing" textLength="203" x="98.5" y="318.6504">destinationChainId: 11,155,111,</text><text fill="#000000" font-family="sans-serif" font-size="13" lengthAdjust="spacing" textLength="216" x="98.5" y="333.9609">rate: 1,,000,000,000,000,000,000,</text><text fill="#000000" font-family="sans-serif" font-size="13" lengthAdjust="spacing" textLength="240" x="98.5" y="349.2715">amount: 4,,000,000,000,000,000,000)</text><text fill="#000000" font-family="sans-serif" font-size="13" lengthAdjust="spacing" textLength="78" x="90.5" y="364.582">195,889 gas</text><polygon fill="#181818" points="642.5,455.877,652.5,459.877,642.5,463.877,646.5,459.877" style="stroke:#181818;stroke-width:1.0;"/><line style="stroke:#181818;stroke-width:1.0;" x1="360.5" x2="648.5" y1="459.877" y2="459.877"/><text fill="#000000" font-family="sans-serif" font-size="13" lengthAdjust="spacing" textLength="85" x="367.5" y="393.8926">transferFrom(</text><text fill="#000000" font-family="sans-serif" font-size="13" lengthAdjust="spacing" textLength="130" x="375.5" y="409.2031">from: 0xF1BD..a51C,</text><text fill="#000000" font-family="sans-serif" font-size="13" lengthAdjust="spacing" textLength="114" x="375.5" y="424.5137">to: 0xA882..cA74,</text><text fill="#000000" font-family="sans-serif" font-size="13" lengthAdjust="spacing" textLength="225" x="375.5" y="439.8242">value: 4,,000,000,000,000,000,000)</text><text fill="#000000" font-family="sans-serif" font-size="13" lengthAdjust="spacing" textLength="70" x="367.5" y="455.1348">16,101 gas</text><polygon fill="#181818" points="371.5,485.1875,361.5,489.1875,371.5,493.1875,367.5,489.1875" style="stroke:#181818;stroke-width:1.0;"/><line style="stroke:#181818;stroke-width:1.0;stroke-dasharray:2.0,2.0;" x1="365.5" x2="658.5" y1="489.1875" y2="489.1875"/><text fill="#000000" font-family="sans-serif" font-size="13" lengthAdjust="spacing" textLength="25" x="377.5" y="484.4453">true</text><polygon fill="#181818" points="772.5,636.9824,782.5,640.9824,772.5,644.9824,776.5,640.9824" style="stroke:#181818;stroke-width:1.0;"/><line style="stroke:#181818;stroke-width:1.0;" x1="360.5" x2="778.5" y1="640.9824" y2="640.9824"/><text fill="#000000" font-family="sans-serif" font-size="13" lengthAdjust="spacing" textLength="45" x="367.5" y="513.7559">getFee(</text><text fill="#000000" font-family="sans-serif" font-size="13" lengthAdjust="spacing" textLength="357" x="375.5" y="529.0664">destinationChainSelector: 16,,015,286,601,757,825,753,</text><text fill="#000000" font-family="sans-serif" font-size="13" lengthAdjust="spacing" textLength="67" x="375.5" y="544.377">message: [</text><text fill="#000000" font-family="sans-serif" font-size="13" lengthAdjust="spacing" textLength="208" x="383.5" y="559.6875">receiver: 0x00000000..7fa15a23,</text><text fill="#000000" font-family="sans-serif" font-size="13" lengthAdjust="spacing" textLength="188" x="383.5" y="574.998">data: 0x52f43d76..9d900000,</text><text fill="#000000" font-family="sans-serif" font-size="13" lengthAdjust="spacing" textLength="109" x="383.5" y="590.3086">tokenAmounts: ],</text><text fill="#000000" font-family="sans-serif" font-size="13" lengthAdjust="spacing" textLength="158" x="383.5" y="605.6191">feeToken: 0x0b9d..7846,</text><text fill="#000000" font-family="sans-serif" font-size="13" lengthAdjust="spacing" textLength="227" x="383.5" y="620.9297">extraArgs: 0x97a657c9..00000000])</text><text fill="#000000" font-family="sans-serif" font-size="13" lengthAdjust="spacing" textLength="70" x="367.5" y="636.2402">25,414 gas</text><polygon fill="#181818" points="1093.5,773.4668,1103.5,777.4668,1093.5,781.4668,1097.5,777.4668" style="stroke:#181818;stroke-width:1.0;"/><line style="stroke:#181818;stroke-width:1.0;" x1="794.5" x2="1099.5" y1="777.4668" y2="777.4668"/><text fill="#000000" font-family="sans-serif" font-size="13" lengthAdjust="spacing" textLength="45" x="801.5" y="665.5508">getFee(</text><text fill="#000000" font-family="sans-serif" font-size="13" lengthAdjust="spacing" textLength="67" x="809.5" y="680.8613">message: [</text><text fill="#000000" font-family="sans-serif" font-size="13" lengthAdjust="spacing" textLength="208" x="817.5" y="696.1719">receiver: 0x00000000..7fa15a23,</text><text fill="#000000" font-family="sans-serif" font-size="13" lengthAdjust="spacing" textLength="188" x="817.5" y="711.4824">data: 0x52f43d76..9d900000,</text><text fill="#000000" font-family="sans-serif" font-size="13" lengthAdjust="spacing" textLength="109" x="817.5" y="726.793">tokenAmounts: ],</text><text fill="#000000" font-family="sans-serif" font-size="13" lengthAdjust="spacing" textLength="158" x="817.5" y="742.1035">feeToken: 0x0b9d..7846,</text><text fill="#000000" font-family="sans-serif" font-size="13" lengthAdjust="spacing" textLength="227" x="817.5" y="757.4141">extraArgs: 0x97a657c9..00000000])</text><text fill="#000000" font-family="sans-serif" font-size="13" lengthAdjust="spacing" textLength="70" x="801.5" y="772.7246">16,419 gas</text><polygon fill="#181818" points="1443.5,848.709,1453.5,852.709,1443.5,856.709,1447.5,852.709" style="stroke:#181818;stroke-width:1.0;"/><line style="stroke:#181818;stroke-width:1.0;" x1="1115.5" x2="1449.5" y1="852.709" y2="852.709"/><text fill="#000000" font-family="sans-serif" font-size="13" lengthAdjust="spacing" textLength="148" x="1122.5" y="802.0352">getTokenAndGasPrices(</text><text fill="#000000" font-family="sans-serif" font-size="13" lengthAdjust="spacing" textLength="136" x="1130.5" y="817.3457">token: 0x0b9d..7846,</text><text fill="#000000" font-family="sans-serif" font-size="13" lengthAdjust="spacing" textLength="313" x="1130.5" y="832.6563">destChainSelector: 16,,015,286,601,757,825,753)</text><text fill="#000000" font-family="sans-serif" font-size="13" lengthAdjust="spacing" textLength="62" x="1122.5" y="847.9668">5,540 gas</text><polygon fill="#181818" points="1126.5,893.3301,1116.5,897.3301,1126.5,901.3301,1122.5,897.3301" style="stroke:#181818;stroke-width:1.0;"/><line style="stroke:#181818;stroke-width:1.0;stroke-dasharray:2.0,2.0;" x1="1120.5" x2="1459.5" y1="897.3301" y2="897.3301"/><text fill="#000000" font-family="sans-serif" font-size="13" lengthAdjust="spacing" textLength="258" x="1132.5" y="877.2773">tokenPrice: 6,,500,000,000,000,000,000,</text><text fill="#000000" font-family="sans-serif" font-size="13" lengthAdjust="spacing" textLength="214" x="1132.5" y="892.5879">gasPriceValue: 1,787,012,222,400</text><polygon fill="#181818" points="805.5,922.6406,795.5,926.6406,805.5,930.6406,801.5,926.6406" style="stroke:#181818;stroke-width:1.0;"/><line style="stroke:#181818;stroke-width:1.0;stroke-dasharray:2.0,2.0;" x1="799.5" x2="1109.5" y1="926.6406" y2="926.6406"/><text fill="#000000" font-family="sans-serif" font-size="13" lengthAdjust="spacing" textLength="164" x="811.5" y="921.8984">448,511,649,199,360,000</text><path d="M1115,939.6406 L1115,979.6406 L1206,979.6406 L1206,949.6406 L1196,939.6406 L1115,939.6406 " fill="#FEFFDD" style="stroke:#181818;stroke-width:0.5;"/><path d="M1196,939.6406 L1196,949.6406 L1206,949.6406 L1196,939.6406 " fill="#FEFFDD" style="stroke:#181818;stroke-width:0.5;"/><text fill="#000000" font-family="sans-serif" font-size="13" lengthAdjust="spacing" textLength="4" x="1121" y="957.209">&#160;</text><text fill="#000000" font-family="sans-serif" font-size="13" lengthAdjust="spacing" textLength="70" x="1121" y="972.5195">10,879 gas</text><polygon fill="#181818" points="371.5,1002.5723,361.5,1006.5723,371.5,1010.5723,367.5,1006.5723" style="stroke:#181818;stroke-width:1.0;"/><line style="stroke:#181818;stroke-width:1.0;stroke-dasharray:2.0,2.0;" x1="365.5" x2="788.5" y1="1006.5723" y2="1006.5723"/><text fill="#000000" font-family="sans-serif" font-size="13" lengthAdjust="spacing" textLength="191" x="377.5" y="1001.8301">fee: 448,511,649,199,360,000</text><path d="M794,1019.5723 L794,1059.5723 L877,1059.5723 L877,1029.5723 L867,1019.5723 L794,1019.5723 " fill="#FEFFDD" style="stroke:#181818;stroke-width:0.5;"/><path d="M867,1019.5723 L867,1029.5723 L877,1029.5723 L867,1019.5723 " fill="#FEFFDD" style="stroke:#181818;stroke-width:0.5;"/><text fill="#000000" font-family="sans-serif" font-size="13" lengthAdjust="spacing" textLength="4" x="800" y="1037.1406">&#160;</text><text fill="#000000" font-family="sans-serif" font-size="13" lengthAdjust="spacing" textLength="62" x="800" y="1052.4512">8,995 gas</text><polygon fill="#181818" points="1567.5,1113.125,1577.5,1117.125,1567.5,1121.125,1571.5,1117.125" style="stroke:#181818;stroke-width:1.0;"/><line style="stroke:#181818;stroke-width:1.0;" x1="360.5" x2="1573.5" y1="1117.125" y2="1117.125"/><text fill="#000000" font-family="sans-serif" font-size="13" lengthAdjust="spacing" textLength="67" x="367.5" y="1081.7617">balanceOf(</text><text fill="#000000" font-family="sans-serif" font-size="13" lengthAdjust="spacing" textLength="146" x="375.5" y="1097.0723">_owner: 0xA882..cA74)</text><text fill="#000000" font-family="sans-serif" font-size="13" lengthAdjust="spacing" textLength="62" x="367.5" y="1112.3828">2,660 gas</text><polygon fill="#181818" points="371.5,1142.4355,361.5,1146.4355,371.5,1150.4355,367.5,1146.4355" style="stroke:#181818;stroke-width:1.0;"/><line style="stroke:#181818;stroke-width:1.0;stroke-dasharray:2.0,2.0;" x1="365.5" x2="1583.5" y1="1146.4355" y2="1146.4355"/><text fill="#000000" font-family="sans-serif" font-size="13" lengthAdjust="spacing" textLength="236" x="377.5" y="1141.6934">balance: 3,,000,000,000,000,000,000</text><polygon fill="#181818" points="772.5,1294.2305,782.5,1298.2305,772.5,1302.2305,776.5,1298.2305" style="stroke:#181818;stroke-width:1.0;"/><line style="stroke:#181818;stroke-width:1.0;" x1="360.5" x2="778.5" y1="1298.2305" y2="1298.2305"/><text fill="#000000" font-family="sans-serif" font-size="13" lengthAdjust="spacing" textLength="60" x="367.5" y="1171.0039">ccipSend(</text><text fill="#000000" font-family="sans-serif" font-size="13" lengthAdjust="spacing" textLength="357" x="375.5" y="1186.3145">destinationChainSelector: 16,,015,286,601,757,825,753,</text><text fill="#000000" font-family="sans-serif" font-size="13" lengthAdjust="spacing" textLength="67" x="375.5" y="1201.625">message: [</text><text fill="#000000" font-family="sans-serif" font-size="13" lengthAdjust="spacing" textLength="208" x="383.5" y="1216.9355">receiver: 0x00000000..7fa15a23,</text><text fill="#000000" font-family="sans-serif" font-size="13" lengthAdjust="spacing" textLength="188" x="383.5" y="1232.2461">data: 0x52f43d76..9d900000,</text><text fill="#000000" font-family="sans-serif" font-size="13" lengthAdjust="spacing" textLength="109" x="383.5" y="1247.5566">tokenAmounts: ],</text><text fill="#000000" font-family="sans-serif" font-size="13" lengthAdjust="spacing" textLength="158" x="383.5" y="1262.8672">feeToken: 0x0b9d..7846,</text><text fill="#000000" font-family="sans-serif" font-size="13" lengthAdjust="spacing" textLength="227" x="383.5" y="1278.1777">extraArgs: 0x97a657c9..00000000])</text><text fill="#000000" font-family="sans-serif" font-size="13" lengthAdjust="spacing" textLength="70" x="367.5" y="1293.4883">88,337 gas</text><polygon fill="#181818" points="1689.5,1338.8516,1699.5,1342.8516,1689.5,1346.8516,1693.5,1342.8516" style="stroke:#181818;stroke-width:1.0;"/><line style="stroke:#181818;stroke-width:1.0;stroke-dasharray:2.0,2.0;" x1="794.5" x2="1695.5" y1="1342.8516" y2="1342.8516"/><text fill="#000000" font-family="sans-serif" font-size="13" lengthAdjust="spacing" textLength="63" x="801.5" y="1322.7988">isCursed()</text><text fill="#000000" font-family="sans-serif" font-size="13" lengthAdjust="spacing" textLength="62" x="801.5" y="1338.1094">7,456 gas</text><polygon fill="#181818" points="1806,1383.4727,1816,1387.4727,1806,1391.4727,1810,1387.4727" style="stroke:#181818;stroke-width:1.0;"/><line style="stroke:#181818;stroke-width:1.0;" x1="1711.5" x2="1812" y1="1387.4727" y2="1387.4727"/><text fill="#000000" font-family="sans-serif" font-size="13" lengthAdjust="spacing" textLength="63" x="1718.5" y="1367.4199">isCursed()</text><text fill="#000000" font-family="sans-serif" font-size="13" lengthAdjust="spacing" textLength="62" x="1718.5" y="1382.7305">2,394 gas</text><polygon fill="#181818" points="1722.5,1412.7832,1712.5,1416.7832,1722.5,1420.7832,1718.5,1416.7832" style="stroke:#181818;stroke-width:1.0;"/><line style="stroke:#181818;stroke-width:1.0;stroke-dasharray:2.0,2.0;" x1="1716.5" x2="1822" y1="1416.7832" y2="1416.7832"/><text fill="#000000" font-family="sans-serif" font-size="13" lengthAdjust="spacing" textLength="30" x="1728.5" y="1412.041">false</text><polygon fill="#181818" points="805.5,1442.0938,795.5,1446.0938,805.5,1450.0938,801.5,1446.0938" style="stroke:#181818;stroke-width:1.0;"/><line style="stroke:#181818;stroke-width:1.0;stroke-dasharray:2.0,2.0;" x1="799.5" x2="1705.5" y1="1446.0938" y2="1446.0938"/><text fill="#000000" font-family="sans-serif" font-size="13" lengthAdjust="spacing" textLength="30" x="811.5" y="1441.3516">false</text><path d="M1711,1459.0938 L1711,1499.0938 L1794,1499.0938 L1794,1469.0938 L1784,1459.0938 L1711,1459.0938 " fill="#FEFFDD" style="stroke:#181818;stroke-width:0.5;"/><path d="M1784,1459.0938 L1784,1469.0938 L1794,1469.0938 L1784,1459.0938 " fill="#FEFFDD" style="stroke:#181818;stroke-width:0.5;"/><text fill="#000000" font-family="sans-serif" font-size="13" lengthAdjust="spacing" textLength="4" x="1717" y="1476.6621">&#160;</text><text fill="#000000" font-family="sans-serif" font-size="13" lengthAdjust="spacing" textLength="62" x="1717" y="1491.9727">5,062 gas</text><polygon fill="#181818" points="1093.5,1629.1992,1103.5,1633.1992,1093.5,1637.1992,1097.5,1633.1992" style="stroke:#181818;stroke-width:1.0;"/><line style="stroke:#181818;stroke-width:1.0;" x1="794.5" x2="1099.5" y1="1633.1992" y2="1633.1992"/><text fill="#000000" font-family="sans-serif" font-size="13" lengthAdjust="spacing" textLength="45" x="801.5" y="1521.2832">getFee(</text><text fill="#000000" font-family="sans-serif" font-size="13" lengthAdjust="spacing" textLength="67" x="809.5" y="1536.5938">message: [</text><text fill="#000000" font-family="sans-serif" font-size="13" lengthAdjust="spacing" textLength="208" x="817.5" y="1551.9043">receiver: 0x00000000..7fa15a23,</text><text fill="#000000" font-family="sans-serif" font-size="13" lengthAdjust="spacing" textLength="188" x="817.5" y="1567.2148">data: 0x52f43d76..9d900000,</text><text fill="#000000" font-family="sans-serif" font-size="13" lengthAdjust="spacing" textLength="109" x="817.5" y="1582.5254">tokenAmounts: ],</text><text fill="#000000" font-family="sans-serif" font-size="13" lengthAdjust="spacing" textLength="158" x="817.5" y="1597.8359">feeToken: 0x0b9d..7846,</text><text fill="#000000" font-family="sans-serif" font-size="13" lengthAdjust="spacing" textLength="227" x="817.5" y="1613.1465">extraArgs: 0x97a657c9..00000000])</text><text fill="#000000" font-family="sans-serif" font-size="13" lengthAdjust="spacing" textLength="62" x="801.5" y="1628.457">5,919 gas</text><polygon fill="#181818" points="1443.5,1704.4414,1453.5,1708.4414,1443.5,1712.4414,1447.5,1708.4414" style="stroke:#181818;stroke-width:1.0;"/><line style="stroke:#181818;stroke-width:1.0;" x1="1115.5" x2="1449.5" y1="1708.4414" y2="1708.4414"/><text fill="#000000" font-family="sans-serif" font-size="13" lengthAdjust="spacing" textLength="148" x="1122.5" y="1657.7676">getTokenAndGasPrices(</text><text fill="#000000" font-family="sans-serif" font-size="13" lengthAdjust="spacing" textLength="136" x="1130.5" y="1673.0781">token: 0x0b9d..7846,</text><text fill="#000000" font-family="sans-serif" font-size="13" lengthAdjust="spacing" textLength="313" x="1130.5" y="1688.3887">destChainSelector: 16,,015,286,601,757,825,753)</text><text fill="#000000" font-family="sans-serif" font-size="13" lengthAdjust="spacing" textLength="62" x="1122.5" y="1703.6992">1,540 gas</text><polygon fill="#181818" points="1126.5,1749.0625,1116.5,1753.0625,1126.5,1757.0625,1122.5,1753.0625" style="stroke:#181818;stroke-width:1.0;"/><line style="stroke:#181818;stroke-width:1.0;stroke-dasharray:2.0,2.0;" x1="1120.5" x2="1459.5" y1="1753.0625" y2="1753.0625"/><text fill="#000000" font-family="sans-serif" font-size="13" lengthAdjust="spacing" textLength="258" x="1132.5" y="1733.0098">tokenPrice: 6,,500,000,000,000,000,000,</text><text fill="#000000" font-family="sans-serif" font-size="13" lengthAdjust="spacing" textLength="214" x="1132.5" y="1748.3203">gasPriceValue: 1,787,012,222,400</text><polygon fill="#181818" points="805.5,1778.373,795.5,1782.373,805.5,1786.373,801.5,1782.373" style="stroke:#181818;stroke-width:1.0;"/><line style="stroke:#181818;stroke-width:1.0;stroke-dasharray:2.0,2.0;" x1="799.5" x2="1109.5" y1="1782.373" y2="1782.373"/><text fill="#000000" font-family="sans-serif" font-size="13" lengthAdjust="spacing" textLength="164" x="811.5" y="1777.6309">448,511,649,199,360,000</text><path d="M1115,1795.373 L1115,1835.373 L1198,1835.373 L1198,1805.373 L1188,1795.373 L1115,1795.373 " fill="#FEFFDD" style="stroke:#181818;stroke-width:0.5;"/><path d="M1188,1795.373 L1188,1805.373 L1198,1805.373 L1188,1795.373 " fill="#FEFFDD" style="stroke:#181818;stroke-width:0.5;"/><text fill="#000000" font-family="sans-serif" font-size="13" lengthAdjust="spacing" textLength="4" x="1121" y="1812.9414">&#160;</text><text fill="#000000" font-family="sans-serif" font-size="13" lengthAdjust="spacing" textLength="62" x="1121" y="1828.252">4,379 gas</text><polygon fill="#181818" points="1567.5,1919.5469,1577.5,1923.5469,1567.5,1927.5469,1571.5,1923.5469" style="stroke:#181818;stroke-width:1.0;"/><line style="stroke:#181818;stroke-width:1.0;" x1="794.5" x2="1573.5" y1="1923.5469" y2="1923.5469"/><text fill="#000000" font-family="sans-serif" font-size="13" lengthAdjust="spacing" textLength="85" x="801.5" y="1857.5625">transferFrom(</text><text fill="#000000" font-family="sans-serif" font-size="13" lengthAdjust="spacing" textLength="138" x="809.5" y="1872.873">_from: 0xA882..cA74,</text><text fill="#000000" font-family="sans-serif" font-size="13" lengthAdjust="spacing" textLength="120" x="809.5" y="1888.1836">_to: 0xA799..AEc4,</text><text fill="#000000" font-family="sans-serif" font-size="13" lengthAdjust="spacing" textLength="216" x="809.5" y="1903.4941">_value: 448,511,649,199,360,000)</text><text fill="#000000" font-family="sans-serif" font-size="13" lengthAdjust="spacing" textLength="70" x="801.5" y="1918.8047">16,588 gas</text><polygon fill="#181818" points="805.5,1948.8574,795.5,1952.8574,805.5,1956.8574,801.5,1952.8574" style="stroke:#181818;stroke-width:1.0;"/><line style="stroke:#181818;stroke-width:1.0;stroke-dasharray:2.0,2.0;" x1="799.5" x2="1583.5" y1="1952.8574" y2="1952.8574"/><text fill="#000000" font-family="sans-serif" font-size="13" lengthAdjust="spacing" textLength="25" x="811.5" y="1948.1152">true</text><polygon fill="#181818" points="1093.5,2115.9629,1103.5,2119.9629,1093.5,2123.9629,1097.5,2119.9629" style="stroke:#181818;stroke-width:1.0;"/><line style="stroke:#181818;stroke-width:1.0;" x1="794.5" x2="1099.5" y1="2119.9629" y2="2119.9629"/><text fill="#000000" font-family="sans-serif" font-size="13" lengthAdjust="spacing" textLength="125" x="801.5" y="1977.4258">forwardFromRouter(</text><text fill="#000000" font-family="sans-serif" font-size="13" lengthAdjust="spacing" textLength="67" x="809.5" y="1992.7363">message: [</text><text fill="#000000" font-family="sans-serif" font-size="13" lengthAdjust="spacing" textLength="208" x="817.5" y="2008.0469">receiver: 0x00000000..7fa15a23,</text><text fill="#000000" font-family="sans-serif" font-size="13" lengthAdjust="spacing" textLength="188" x="817.5" y="2023.3574">data: 0x52f43d76..9d900000,</text><text fill="#000000" font-family="sans-serif" font-size="13" lengthAdjust="spacing" textLength="109" x="817.5" y="2038.668">tokenAmounts: ],</text><text fill="#000000" font-family="sans-serif" font-size="13" lengthAdjust="spacing" textLength="158" x="817.5" y="2053.9785">feeToken: 0x0b9d..7846,</text><text fill="#000000" font-family="sans-serif" font-size="13" lengthAdjust="spacing" textLength="227" x="817.5" y="2069.2891">extraArgs: 0x97a657c9..00000000],</text><text fill="#000000" font-family="sans-serif" font-size="13" lengthAdjust="spacing" textLength="284" x="809.5" y="2084.5996">feeTokenAmount: 448,511,649,199,360,000,</text><text fill="#000000" font-family="sans-serif" font-size="13" lengthAdjust="spacing" textLength="191" x="809.5" y="2099.9102">originalSender: 0xA882..cA74)</text><text fill="#000000" font-family="sans-serif" font-size="13" lengthAdjust="spacing" textLength="70" x="801.5" y="2115.2207">47,599 gas</text><polygon fill="#181818" points="1689.5,2160.584,1699.5,2164.584,1689.5,2168.584,1693.5,2164.584" style="stroke:#181818;stroke-width:1.0;"/><line style="stroke:#181818;stroke-width:1.0;stroke-dasharray:2.0,2.0;" x1="1115.5" x2="1695.5" y1="2164.584" y2="2164.584"/><text fill="#000000" font-family="sans-serif" font-size="13" lengthAdjust="spacing" textLength="63" x="1122.5" y="2144.5313">isCursed()</text><text fill="#000000" font-family="sans-serif" font-size="13" lengthAdjust="spacing" textLength="50" x="1122.5" y="2159.8418">956 gas</text><polygon fill="#181818" points="1806,2205.2051,1816,2209.2051,1806,2213.2051,1810,2209.2051" style="stroke:#181818;stroke-width:1.0;"/><line style="stroke:#181818;stroke-width:1.0;" x1="1711.5" x2="1812" y1="2209.2051" y2="2209.2051"/><text fill="#000000" font-family="sans-serif" font-size="13" lengthAdjust="spacing" textLength="63" x="1718.5" y="2189.1523">isCursed()</text><text fill="#000000" font-family="sans-serif" font-size="13" lengthAdjust="spacing" textLength="50" x="1718.5" y="2204.4629">394 gas</text><polygon fill="#181818" points="1722.5,2234.5156,1712.5,2238.5156,1722.5,2242.5156,1718.5,2238.5156" style="stroke:#181818;stroke-width:1.0;"/><line style="stroke:#181818;stroke-width:1.0;stroke-dasharray:2.0,2.0;" x1="1716.5" x2="1822" y1="2238.5156" y2="2238.5156"/><text fill="#000000" font-family="sans-serif" font-size="13" lengthAdjust="spacing" textLength="30" x="1728.5" y="2233.7734">false</text><polygon fill="#181818" points="1126.5,2263.8262,1116.5,2267.8262,1126.5,2271.8262,1122.5,2267.8262" style="stroke:#181818;stroke-width:1.0;"/><line style="stroke:#181818;stroke-width:1.0;stroke-dasharray:2.0,2.0;" x1="1120.5" x2="1705.5" y1="2267.8262" y2="2267.8262"/><text fill="#000000" font-family="sans-serif" font-size="13" lengthAdjust="spacing" textLength="30" x="1132.5" y="2263.084">false</text><path d="M1711,2280.8262 L1711,2320.8262 L1782,2320.8262 L1782,2290.8262 L1772,2280.8262 L1711,2280.8262 " fill="#FEFFDD" style="stroke:#181818;stroke-width:0.5;"/><path d="M1772,2280.8262 L1772,2290.8262 L1782,2290.8262 L1772,2280.8262 " fill="#FEFFDD" style="stroke:#181818;stroke-width:0.5;"/><text fill="#000000" font-family="sans-serif" font-size="13" lengthAdjust="spacing" textLength="4" x="1717" y="2298.3945">&#160;</text><text fill="#000000" font-family="sans-serif" font-size="13" lengthAdjust="spacing" textLength="50" x="1717" y="2313.7051">562 gas</text><polygon fill="#181818" points="805.5,2343.7578,795.5,2347.7578,805.5,2351.7578,801.5,2347.7578" style="stroke:#181818;stroke-width:1.0;"/><line style="stroke:#181818;stroke-width:1.0;stroke-dasharray:2.0,2.0;" x1="799.5" x2="1109.5" y1="2347.7578" y2="2347.7578"/><text fill="#000000" font-family="sans-serif" font-size="13" lengthAdjust="spacing" textLength="148" x="811.5" y="2343.0156">0xb3aa4600..ad9a9137</text><path d="M1115,2360.7578 L1115,2400.7578 L1206,2400.7578 L1206,2370.7578 L1196,2360.7578 L1115,2360.7578 " fill="#FEFFDD" style="stroke:#181818;stroke-width:0.5;"/><path d="M1196,2360.7578 L1196,2370.7578 L1206,2370.7578 L1196,2360.7578 " fill="#FEFFDD" style="stroke:#181818;stroke-width:0.5;"/><text fill="#000000" font-family="sans-serif" font-size="13" lengthAdjust="spacing" textLength="4" x="1121" y="2378.3262">&#160;</text><text fill="#000000" font-family="sans-serif" font-size="13" lengthAdjust="spacing" textLength="70" x="1121" y="2393.6367">46,643 gas</text><polygon fill="#181818" points="371.5,2423.6895,361.5,2427.6895,371.5,2431.6895,367.5,2427.6895" style="stroke:#181818;stroke-width:1.0;"/><line style="stroke:#181818;stroke-width:1.0;stroke-dasharray:2.0,2.0;" x1="365.5" x2="788.5" y1="2427.6895" y2="2427.6895"/><text fill="#000000" font-family="sans-serif" font-size="13" lengthAdjust="spacing" textLength="148" x="377.5" y="2422.9473">0xb3aa4600..ad9a9137</text><path d="M794,2440.6895 L794,2480.6895 L885,2480.6895 L885,2450.6895 L875,2440.6895 L794,2440.6895 " fill="#FEFFDD" style="stroke:#181818;stroke-width:0.5;"/><path d="M875,2440.6895 L875,2450.6895 L885,2450.6895 L875,2440.6895 " fill="#FEFFDD" style="stroke:#181818;stroke-width:0.5;"/><text fill="#000000" font-family="sans-serif" font-size="13" lengthAdjust="spacing" textLength="4" x="800" y="2458.2578">&#160;</text><text fill="#000000" font-family="sans-serif" font-size="13" lengthAdjust="spacing" textLength="70" x="800" y="2473.5684">10,775 gas</text><polygon fill="#181818" points="94.5,2488.3105,84.5,2492.3105,94.5,2496.3105,90.5,2492.3105" style="stroke:#181818;stroke-width:1.0;"/><line style="stroke:#181818;stroke-width:1.0;stroke-dasharray:2.0,2.0;" x1="88.5" x2="354.5" y1="2492.3105" y2="2492.3105"/><path d="M360,2505.3105 L360,2545.3105 L451,2545.3105 L451,2515.3105 L441,2505.3105 L360,2505.3105 " fill="#FEFFDD" style="stroke:#181818;stroke-width:0.5;"/><path d="M441,2505.3105 L441,2515.3105 L451,2515.3105 L441,2505.3105 " fill="#FEFFDD" style="stroke:#181818;stroke-width:0.5;"/><text fill="#000000" font-family="sans-serif" font-size="13" lengthAdjust="spacing" textLength="4" x="366" y="2522.8789">&#160;</text><text fill="#000000" font-family="sans-serif" font-size="13" lengthAdjust="spacing" textLength="70" x="366" y="2538.1895">63,377 gas</text><path d="M186,2555.9316 L186,2641.9316 L524,2641.9316 L524,2565.9316 L514,2555.9316 L186,2555.9316 " fill="#00FFFF" style="stroke:#181818;stroke-width:0.5;"/><path d="M514,2555.9316 L514,2565.9316 L524,2565.9316 L514,2555.9316 " fill="#00FFFF" style="stroke:#181818;stroke-width:0.5;"/><text fill="#000000" font-family="sans-serif" font-size="13" lengthAdjust="spacing" textLength="66" x="192" y="2573.5">TakeSwap:</text><text fill="#000000" font-family="sans-serif" font-size="13" lengthAdjust="spacing" textLength="227" x="200" y="2588.8105">messageId: 0xb3aa4600..ad9a9137,</text><text fill="#000000" font-family="sans-serif" font-size="13" lengthAdjust="spacing" textLength="279" x="200" y="2604.1211">destinationPoolKey: 0xb9e32235..2b7038fe,</text><text fill="#000000" font-family="sans-serif" font-size="13" lengthAdjust="spacing" textLength="284" x="200" y="2619.4316">sourceAmount: 4,,000,000,000,000,000,000,</text><text fill="#000000" font-family="sans-serif" font-size="13" lengthAdjust="spacing" textLength="309" x="200" y="2634.7422">destinationAmount: 4,,000,000,000,000,000,000</text><path d="M534,2555.9316 L534,2626.9316 L784,2626.9316 L784,2565.9316 L774,2555.9316 L534,2555.9316 " fill="#00FFFF" style="stroke:#181818;stroke-width:0.5;"/><path d="M774,2555.9316 L774,2565.9316 L784,2565.9316 L774,2555.9316 " fill="#00FFFF" style="stroke:#181818;stroke-width:0.5;"/><text fill="#000000" font-family="sans-serif" font-size="13" lengthAdjust="spacing" textLength="56" x="540" y="2573.5">Transfer:</text><text fill="#000000" font-family="sans-serif" font-size="13" lengthAdjust="spacing" textLength="130" x="548" y="2588.8105">from: 0xF1BD..a51C,</text><text fill="#000000" font-family="sans-serif" font-size="13" lengthAdjust="spacing" textLength="114" x="548" y="2604.1211">to: 0xA882..cA74,</text><text fill="#000000" font-family="sans-serif" font-size="13" lengthAdjust="spacing" textLength="221" x="548" y="2619.4316">value: 4,,000,000,000,000,000,000</text><path d="M928,2555.9316 L928,2779.9316 L1293,2779.9316 L1293,2565.9316 L1283,2555.9316 L928,2555.9316 " fill="#00FFFF" style="stroke:#181818;stroke-width:0.5;"/><path d="M1283,2555.9316 L1283,2565.9316 L1293,2565.9316 L1283,2555.9316 " fill="#00FFFF" style="stroke:#181818;stroke-width:0.5;"/><text fill="#000000" font-family="sans-serif" font-size="13" lengthAdjust="spacing" textLength="128" x="934" y="2573.5">CCIPSendRequested:</text><text fill="#000000" font-family="sans-serif" font-size="13" lengthAdjust="spacing" textLength="67" x="942" y="2588.8105">message: [</text><text fill="#000000" font-family="sans-serif" font-size="13" lengthAdjust="spacing" textLength="328" x="950" y="2604.1211">sourceChainSelector: 14,,767,482,510,784,806,043,</text><text fill="#000000" font-family="sans-serif" font-size="13" lengthAdjust="spacing" textLength="157" x="950" y="2619.4316">sequenceNumber: 9,481,</text><text fill="#000000" font-family="sans-serif" font-size="13" lengthAdjust="spacing" textLength="284" x="950" y="2634.7422">feeTokenAmount: 448,511,649,199,360,000,</text><text fill="#000000" font-family="sans-serif" font-size="13" lengthAdjust="spacing" textLength="143" x="950" y="2650.0527">sender: 0xA882..cA74,</text><text fill="#000000" font-family="sans-serif" font-size="13" lengthAdjust="spacing" textLength="58" x="950" y="2665.3633">nonce: 1,</text><text fill="#000000" font-family="sans-serif" font-size="13" lengthAdjust="spacing" textLength="130" x="950" y="2680.6738">gasLimit: 1,000,000,</text><text fill="#000000" font-family="sans-serif" font-size="13" lengthAdjust="spacing" textLength="75" x="950" y="2695.9844">strict: false,</text><text fill="#000000" font-family="sans-serif" font-size="13" lengthAdjust="spacing" textLength="148" x="950" y="2711.2949">receiver: 0x6340..5a23,</text><text fill="#000000" font-family="sans-serif" font-size="13" lengthAdjust="spacing" textLength="188" x="950" y="2726.6055">data: 0x52f43d76..9d900000,</text><text fill="#000000" font-family="sans-serif" font-size="13" lengthAdjust="spacing" textLength="109" x="950" y="2741.916">tokenAmounts: ],</text><text fill="#000000" font-family="sans-serif" font-size="13" lengthAdjust="spacing" textLength="158" x="950" y="2757.2266">feeToken: 0x0b9d..7846,</text><text fill="#000000" font-family="sans-serif" font-size="13" lengthAdjust="spacing" textLength="227" x="950" y="2772.5371">messageId: 0xb3aa4600..ad9a9137]</text><path d="M1467,2555.9316 L1467,2626.9316 L1701,2626.9316 L1701,2565.9316 L1691,2555.9316 L1467,2555.9316 " fill="#00FFFF" style="stroke:#181818;stroke-width:0.5;"/><path d="M1691,2555.9316 L1691,2565.9316 L1701,2565.9316 L1691,2555.9316 " fill="#00FFFF" style="stroke:#181818;stroke-width:0.5;"/><text fill="#000000" font-family="sans-serif" font-size="13" lengthAdjust="spacing" textLength="56" x="1473" y="2573.5">Transfer:</text><text fill="#000000" font-family="sans-serif" font-size="13" lengthAdjust="spacing" textLength="131" x="1481" y="2588.8105">from: 0xA882..cA74,</text><text fill="#000000" font-family="sans-serif" font-size="13" lengthAdjust="spacing" textLength="113" x="1481" y="2604.1211">to: 0xA799..AEc4,</text><text fill="#000000" font-family="sans-serif" font-size="13" lengthAdjust="spacing" textLength="205" x="1481" y="2619.4316">value: 448,511,649,199,360,000</text><!--SRC=[vLXVRzis47_Nfo2wbmpWD94Y9See2dXUsXLjsY39-h8K1IrHhX1RIYKvIR_zxYXAyH-vph0zh9i1mpdoxdXtlFiTBstHBWq97fWqKIv46ioZA4gPIZGtpCWypsIYLHJnX2cLnNFyS1cfS1wacKeCLscaHPPvNgflsw8gIRfkscf5oNnPfJU4nqg9A52KNEgM4gR8k-gEy827XFD9o2P2aLTdLvvEswecpuA7dCqptzUIfS-8RWYII13lLjTjaHQtkcoHJol5VJ_LiR1yI291dZ-VrLNJp3xhehoyrxUtfdxnOayuJ44OTFDE64WaGFWCZ3wzcF5WNqXA8NnVyKnP8IIH0A6BQjsE7XCd2VXYKcSZa4Y0nEc7CmxVz-M5Njtk2nh1ZUyBbULM44aaGF2yBb9pOHP5qzPVzmM3UGBHYo7aLX19943mRL7UN5KtfXmnCrKfEiRcdPb08W52qukpyxfw63l8wC3tcLITXKWYqSa0krTMhI7LdQc7A_JULMLg9eJnn7i5CjQL2U6HBychUrDuP_g1l3Im9Ddc4l1LTT5-1Sb-6SNV5gkYXJKQ105-xUBlZSbWBP5KgSIxSle2FmWaERtwpJDbHj0opniIwwSNG_9CIAjl36RDoNL9I5EjwzJOe84EI9gPIngAkvbfsgBKcFC3Yn9PxFk9WFDtM6m-laRR66LIKWQ_o5Bh5aD2Uo_sliYaLzMw15_5GROVhqldD5de1gkfk0FDWsVUK1_ehajtSBVMPPER-cLThQpBEVo1Zhnal_nggt1c3MWhN9ns9JUDXLsyqykrEMPKH5d0TcnontkrQTTr2KQipPPzVMLDoCAqS84dOx6yD4k3c071Yy029YbN4Oq2HcCPKyKb_8RMpfLf6hq0I_z02a9kKbD0Og9BWVj0pUIQISqx4JXEjneP9Cz5cCKHt6gMM5R7qEATJ-t5D1FoqQtcvZ5V7clHRPe7YFUqNZIucyGwad4A-D3Ry17Y1MOB9hRZrOV36n07xz1XoLQClYTFuTO4syrMvvGt82LuseEVzTGUEIqpg7KB7yr9bvxZXc3EF3rPm2X9fGYsRUgF7x8LptBG1RhamR9TE1C_T6K2HwaOZkQKSqu5u9LJ27TA9Q1191BAaeI6KGTd5a3hOl6v9LM-STyGke2gk0kTqv4ZoZrDqMDnNPUA9editDqelxvfJCXSBpL0zllSHlbJTLzskVG819YoD8fsOjPhwCrpUYOaF8WL1m0WXOvp2Q3zFu80fMWOnaSX0370DUe9APhPkeRMTmBoCHKosgahn-WDhHslsRNiRMbEmsG7Vth68TdqiZ7Rn4wk3dPXHGKHj_h-K-WbQVAl0o_sNO2NeA73his4UCISlIV9f_vDilFy-EGU9VQDFJrDtMh_AXath6iyKgbl0vPzaemdR5xLzxhEqBpksVzzvQvbwpLC-tVbUB0iBpoz5m2wIqJX4VGNCPN9yKeuY5R9ty2gVnYf74uvzk1X7ceDeolScyuIdR0m_bPQGqMAy2ygsEp5qDJZM6ugs3rj65AkooY4AkfwnCQWDRJG7_INjVQkt2mpyORyn05ap2xgRNNNywfQlZ5VBMzYGiv3wVjy7WUXoWtoTfFHzEXOigFtkC36WFOpsV2i7z2TPmuZqBEHYSKR6LYy9ymhXmxlixWxV3PxVOx5S66-hC4rc3UzpVhti0gx-EoYDvmSHz2U5OTgW-jMWgeWee48QIU56k6Tz6wzccEf9S3AkgsdLgpJir-gtKxf9l2EWlJP7QATWXQm7vPjoNHBcu0MXG9onmAPTmJ7l34Oyxw1OdRlIBP-F71Hmtyx3cV9Ta3sEiX6bXneRCF9Vm80]--></g></svg>