<?xml version="1.0" encoding="us-ascii" standalone="no"?><svg xmlns="http://www.w3.org/2000/svg" xmlns:xlink="http://www.w3.org/1999/xlink" contentStyleType="text/css" height="2898px" preserveAspectRatio="none" style="width:1885px;height:2898px;background:#FFFFFF;" version="1.1" viewBox="0 0 1885 2898" width="1885px" zoomAndPan="magnify"><defs/><g><text fill="#000000" font-family="sans-serif" font-size="14" font-weight="bold" lengthAdjust="spacing" textLength="561" x="661.25" y="28.5352">0xc3d7ebef218b4e7401e26ff9d416cdff3b2996fd49891bd7d485ad0b7f65cd36</text><text fill="#000000" font-family="sans-serif" font-size="14" lengthAdjust="spacing" textLength="397" x="743.25" y="2886.3027">custom, block 27877484, Sat, 18 Nov 2023 17:30:57 GMT</text><rect fill="#FFFFFF" height="2122.9863" style="stroke:#181818;stroke-width:1.0;" width="10" x="363" y="369.3242"/><rect fill="#FFFFFF" height="29.3105" style="stroke:#181818;stroke-width:1.0;" width="10" x="654" y="459.877"/><rect fill="#FFFFFF" height="365.5898" style="stroke:#181818;stroke-width:1.0;" width="10" x="788" y="640.9824"/><rect fill="#FFFFFF" height="1129.459" style="stroke:#181818;stroke-width:1.0;" width="10" x="788" y="1298.2305"/><rect fill="#FFFFFF" height="149.1738" style="stroke:#181818;stroke-width:1.0;" width="10" x="1109" y="777.4668"/><rect fill="#FFFFFF" height="149.1738" style="stroke:#181818;stroke-width:1.0;" width="10" x="1109" y="1633.1992"/><rect fill="#FFFFFF" height="227.7949" style="stroke:#181818;stroke-width:1.0;" width="10" x="1109" y="2119.9629"/><rect fill="#FFFFFF" height="44.6211" style="stroke:#181818;stroke-width:1.0;" width="10" x="1459" y="852.709"/><rect fill="#FFFFFF" height="44.6211" style="stroke:#181818;stroke-width:1.0;" width="10" x="1459" y="1708.4414"/><rect fill="#FFFFFF" height="29.3105" style="stroke:#181818;stroke-width:1.0;" width="10" x="1583" y="1117.125"/><rect fill="#FFFFFF" height="29.3105" style="stroke:#181818;stroke-width:1.0;" width="10" x="1583" y="1923.5469"/><rect fill="#FFFFFF" height="103.2422" style="stroke:#181818;stroke-width:1.0;" width="10" x="1705" y="1342.8516"/><rect fill="#FFFFFF" height="103.2422" style="stroke:#181818;stroke-width:1.0;" width="10" x="1705" y="2164.584"/><rect fill="#FFFFFF" height="29.3105" style="stroke:#181818;stroke-width:1.0;" width="10" x="1821.5" y="1387.4727"/><rect fill="#FFFFFF" height="29.3105" style="stroke:#181818;stroke-width:1.0;" width="10" x="1821.5" y="2209.2051"/><line style="stroke:#181818;stroke-width:0.5;stroke-dasharray:5.0,5.0;" x1="88" x2="88" y1="118.9766" y2="2795.2793"/><line style="stroke:#181818;stroke-width:0.5;stroke-dasharray:5.0,5.0;" x1="368" x2="368" y1="118.9766" y2="2795.2793"/><line style="stroke:#181818;stroke-width:0.5;stroke-dasharray:5.0,5.0;" x1="658.5" x2="658.5" y1="118.9766" y2="2795.2793"/><line style="stroke:#181818;stroke-width:0.5;stroke-dasharray:5.0,5.0;" x1="793" x2="793" y1="118.9766" y2="2795.2793"/><line style="stroke:#181818;stroke-width:0.5;stroke-dasharray:5.0,5.0;" x1="1114" x2="1114" y1="118.9766" y2="2795.2793"/><line style="stroke:#181818;stroke-width:0.5;stroke-dasharray:5.0,5.0;" x1="1464" x2="1464" y1="118.9766" y2="2795.2793"/><line style="stroke:#181818;stroke-width:0.5;stroke-dasharray:5.0,5.0;" x1="1588" x2="1588" y1="118.9766" y2="2795.2793"/><line style="stroke:#181818;stroke-width:0.5;stroke-dasharray:5.0,5.0;" x1="1709.5" x2="1709.5" y1="118.9766" y2="2795.2793"/><line style="stroke:#181818;stroke-width:0.5;stroke-dasharray:5.0,5.0;" x1="1826.5" x2="1826.5" y1="118.9766" y2="2795.2793"/><text fill="#000000" font-family="sans-serif" font-size="14" lengthAdjust="spacing" textLength="94" x="38" y="116.0234">0x589f..5233</text><ellipse cx="88" cy="50.9883" fill="#E2E2F0" rx="8" ry="8" style="stroke:#181818;stroke-width:0.5;"/><path d="M88,58.9883 L88,85.9883 M75,66.9883 L101,66.9883 M88,85.9883 L75,100.9883 M88,85.9883 L101,100.9883 " fill="none" style="stroke:#181818;stroke-width:0.5;"/><text fill="#000000" font-family="sans-serif" font-size="14" lengthAdjust="spacing" textLength="94" x="38" y="2807.8145">0x589f..5233</text><ellipse cx="88" cy="2819.2676" fill="#E2E2F0" rx="8" ry="8" style="stroke:#181818;stroke-width:0.5;"/><path d="M88,2827.2676 L88,2854.2676 M75,2835.2676 L101,2835.2676 M88,2854.2676 L75,2869.2676 M88,2854.2676 L101,2869.2676 " fill="none" style="stroke:#181818;stroke-width:0.5;"/><rect fill="#E2E2F0" height="46.9766" rx="2.5" ry="2.5" style="stroke:#181818;stroke-width:0.5;" width="166" x="285" y="71"/><text fill="#000000" font-family="sans-serif" font-size="14" font-style="italic" lengthAdjust="spacing" textLength="152" x="292" y="91.5352">&#171;CrossChainSwapper&#187;</text><text fill="#000000" font-family="sans-serif" font-size="14" lengthAdjust="spacing" textLength="93" x="321.5" y="108.0234">0xa47f..0582</text><rect fill="#E2E2F0" height="46.9766" rx="2.5" ry="2.5" style="stroke:#181818;stroke-width:0.5;" width="166" x="285" y="2794.2793"/><text fill="#000000" font-family="sans-serif" font-size="14" font-style="italic" lengthAdjust="spacing" textLength="152" x="292" y="2814.8145">&#171;CrossChainSwapper&#187;</text><text fill="#000000" font-family="sans-serif" font-size="14" lengthAdjust="spacing" textLength="93" x="321.5" y="2831.3027">0xa47f..0582</text><rect fill="#E2E2F0" height="46.9766" rx="2.5" ry="2.5" style="stroke:#181818;stroke-width:0.5;" width="109" x="604.5" y="71"/><text fill="#000000" font-family="sans-serif" font-size="14" font-style="italic" lengthAdjust="spacing" textLength="95" x="611.5" y="91.5352">&#171;MockERC20&#187;</text><text fill="#000000" font-family="sans-serif" font-size="14" lengthAdjust="spacing" textLength="91" x="613.5" y="108.0234">0xa3c2..f1b2</text><rect fill="#E2E2F0" height="46.9766" rx="2.5" ry="2.5" style="stroke:#181818;stroke-width:0.5;" width="109" x="604.5" y="2794.2793"/><text fill="#000000" font-family="sans-serif" font-size="14" font-style="italic" lengthAdjust="spacing" textLength="95" x="611.5" y="2814.8145">&#171;MockERC20&#187;</text><text fill="#000000" font-family="sans-serif" font-size="14" lengthAdjust="spacing" textLength="91" x="613.5" y="2831.3027">0xa3c2..f1b2</text><rect fill="#E2E2F0" height="46.9766" rx="2.5" ry="2.5" style="stroke:#181818;stroke-width:0.5;" width="112" x="737" y="71"/><text fill="#000000" font-family="sans-serif" font-size="14" font-style="italic" lengthAdjust="spacing" textLength="60" x="763" y="91.5352">&#171;Router&#187;</text><text fill="#000000" font-family="sans-serif" font-size="14" lengthAdjust="spacing" textLength="98" x="744" y="108.0234">0x5544..82d8</text><rect fill="#E2E2F0" height="46.9766" rx="2.5" ry="2.5" style="stroke:#181818;stroke-width:0.5;" width="112" x="737" y="2794.2793"/><text fill="#000000" font-family="sans-serif" font-size="14" font-style="italic" lengthAdjust="spacing" textLength="60" x="763" y="2814.8145">&#171;Router&#187;</text><text fill="#000000" font-family="sans-serif" font-size="14" lengthAdjust="spacing" textLength="98" x="744" y="2831.3027">0x5544..82d8</text><rect fill="#E2E2F0" height="46.9766" rx="2.5" ry="2.5" style="stroke:#181818;stroke-width:0.5;" width="154" x="1037" y="71"/><text fill="#000000" font-family="sans-serif" font-size="14" font-style="italic" lengthAdjust="spacing" textLength="140" x="1044" y="91.5352">&#171;EVM2EVMOnRamp&#187;</text><text fill="#000000" font-family="sans-serif" font-size="14" lengthAdjust="spacing" textLength="93" x="1067.5" y="108.0234">0xa799..aec4</text><rect fill="#E2E2F0" height="46.9766" rx="2.5" ry="2.5" style="stroke:#181818;stroke-width:0.5;" width="154" x="1037" y="2794.2793"/><text fill="#000000" font-family="sans-serif" font-size="14" font-style="italic" lengthAdjust="spacing" textLength="140" x="1044" y="2814.8145">&#171;EVM2EVMOnRamp&#187;</text><text fill="#000000" font-family="sans-serif" font-size="14" lengthAdjust="spacing" textLength="93" x="1067.5" y="2831.3027">0xa799..aec4</text><rect fill="#E2E2F0" height="46.9766" rx="2.5" ry="2.5" style="stroke:#181818;stroke-width:0.5;" width="116" x="1406" y="71"/><text fill="#000000" font-family="sans-serif" font-size="14" font-style="italic" lengthAdjust="spacing" textLength="102" x="1413" y="91.5352">&#171;PriceRegistry&#187;</text><text fill="#000000" font-family="sans-serif" font-size="14" lengthAdjust="spacing" textLength="92" x="1418" y="108.0234">0xe42e..48df</text><rect fill="#E2E2F0" height="46.9766" rx="2.5" ry="2.5" style="stroke:#181818;stroke-width:0.5;" width="116" x="1406" y="2794.2793"/><text fill="#000000" font-family="sans-serif" font-size="14" font-style="italic" lengthAdjust="spacing" textLength="102" x="1413" y="2814.8145">&#171;PriceRegistry&#187;</text><text fill="#000000" font-family="sans-serif" font-size="14" lengthAdjust="spacing" textLength="92" x="1418" y="2831.3027">0xe42e..48df</text><rect fill="#E2E2F0" height="46.9766" rx="2.5" ry="2.5" style="stroke:#181818;stroke-width:0.5;" width="112" x="1532" y="71"/><text fill="#000000" font-family="sans-serif" font-size="14" font-style="italic" lengthAdjust="spacing" textLength="85" x="1545.5" y="91.5352">&#171;LinkToken&#187;</text><text fill="#000000" font-family="sans-serif" font-size="14" lengthAdjust="spacing" textLength="98" x="1539" y="108.0234">0x0b9d..7846</text><rect fill="#E2E2F0" height="46.9766" rx="2.5" ry="2.5" style="stroke:#181818;stroke-width:0.5;" width="112" x="1532" y="2794.2793"/><text fill="#000000" font-family="sans-serif" font-size="14" font-style="italic" lengthAdjust="spacing" textLength="85" x="1545.5" y="2814.8145">&#171;LinkToken&#187;</text><text fill="#000000" font-family="sans-serif" font-size="14" lengthAdjust="spacing" textLength="98" x="1539" y="2831.3027">0x0b9d..7846</text><rect fill="#E2E2F0" height="46.9766" rx="2.5" ry="2.5" style="stroke:#181818;stroke-width:0.5;" width="107" x="1656.5" y="71"/><text fill="#000000" font-family="sans-serif" font-size="14" font-style="italic" lengthAdjust="spacing" textLength="84" x="1668" y="91.5352">&#171;ARMProxy&#187;</text><text fill="#000000" font-family="sans-serif" font-size="14" lengthAdjust="spacing" textLength="93" x="1663.5" y="108.0234">0xac8c..821b</text><rect fill="#E2E2F0" height="46.9766" rx="2.5" ry="2.5" style="stroke:#181818;stroke-width:0.5;" width="107" x="1656.5" y="2794.2793"/><text fill="#000000" font-family="sans-serif" font-size="14" font-style="italic" lengthAdjust="spacing" textLength="84" x="1668" y="2814.8145">&#171;ARMProxy&#187;</text><text fill="#000000" font-family="sans-serif" font-size="14" lengthAdjust="spacing" textLength="93" x="1663.5" y="2831.3027">0xac8c..821b</text><rect fill="#E2E2F0" height="46.9766" rx="2.5" ry="2.5" style="stroke:#181818;stroke-width:0.5;" width="106" x="1773.5" y="71"/><text fill="#000000" font-family="sans-serif" font-size="14" font-style="italic" lengthAdjust="spacing" textLength="45" x="1804" y="91.5352">&#171;ARM&#187;</text><text fill="#000000" font-family="sans-serif" font-size="14" lengthAdjust="spacing" textLength="92" x="1780.5" y="108.0234">0x0ea0..158f</text><rect fill="#E2E2F0" height="46.9766" rx="2.5" ry="2.5" style="stroke:#181818;stroke-width:0.5;" width="106" x="1773.5" y="2794.2793"/><text fill="#000000" font-family="sans-serif" font-size="14" font-style="italic" lengthAdjust="spacing" textLength="45" x="1804" y="2814.8145">&#171;ARM&#187;</text><text fill="#000000" font-family="sans-serif" font-size="14" lengthAdjust="spacing" textLength="92" x="1780.5" y="2831.3027">0x0ea0..158f</text><rect fill="#FFFFFF" height="2122.9863" style="stroke:#181818;stroke-width:1.0;" width="10" x="363" y="369.3242"/><rect fill="#FFFFFF" height="29.3105" style="stroke:#181818;stroke-width:1.0;" width="10" x="654" y="459.877"/><rect fill="#FFFFFF" height="365.5898" style="stroke:#181818;stroke-width:1.0;" width="10" x="788" y="640.9824"/><rect fill="#FFFFFF" height="1129.459" style="stroke:#181818;stroke-width:1.0;" width="10" x="788" y="1298.2305"/><rect fill="#FFFFFF" height="149.1738" style="stroke:#181818;stroke-width:1.0;" width="10" x="1109" y="777.4668"/><rect fill="#FFFFFF" height="149.1738" style="stroke:#181818;stroke-width:1.0;" width="10" x="1109" y="1633.1992"/><rect fill="#FFFFFF" height="227.7949" style="stroke:#181818;stroke-width:1.0;" width="10" x="1109" y="2119.9629"/><rect fill="#FFFFFF" height="44.6211" style="stroke:#181818;stroke-width:1.0;" width="10" x="1459" y="852.709"/><rect fill="#FFFFFF" height="44.6211" style="stroke:#181818;stroke-width:1.0;" width="10" x="1459" y="1708.4414"/><rect fill="#FFFFFF" height="29.3105" style="stroke:#181818;stroke-width:1.0;" width="10" x="1583" y="1117.125"/><rect fill="#FFFFFF" height="29.3105" style="stroke:#181818;stroke-width:1.0;" width="10" x="1583" y="1923.5469"/><rect fill="#FFFFFF" height="103.2422" style="stroke:#181818;stroke-width:1.0;" width="10" x="1705" y="1342.8516"/><rect fill="#FFFFFF" height="103.2422" style="stroke:#181818;stroke-width:1.0;" width="10" x="1705" y="2164.584"/><rect fill="#FFFFFF" height="29.3105" style="stroke:#181818;stroke-width:1.0;" width="10" x="1821.5" y="1387.4727"/><rect fill="#FFFFFF" height="29.3105" style="stroke:#181818;stroke-width:1.0;" width="10" x="1821.5" y="2209.2051"/><path d="M5,133.9766 L5,250.9766 L171,250.9766 L171,143.9766 L161,133.9766 L5,133.9766 " fill="#FEFFDD" style="stroke:#181818;stroke-width:0.5;"/><path d="M161,133.9766 L161,143.9766 L171,143.9766 L161,133.9766 " fill="#FEFFDD" style="stroke:#181818;stroke-width:0.5;"/><text fill="#000000" font-family="sans-serif" font-size="13" lengthAdjust="spacing" textLength="56" x="11" y="151.5449">Nonce: 7</text><text fill="#000000" font-family="sans-serif" font-size="13" lengthAdjust="spacing" textLength="135" x="11" y="166.8555">Gas Price: 27.91 Gwei</text><text fill="#000000" font-family="sans-serif" font-size="13" lengthAdjust="spacing" textLength="129" x="11" y="182.166">Max Fee: 32.91 Gwei</text><text fill="#000000" font-family="sans-serif" font-size="13" lengthAdjust="spacing" textLength="145" x="11" y="197.4766">Max Priority: 2.91 Gwei</text><text fill="#000000" font-family="sans-serif" font-size="13" lengthAdjust="spacing" textLength="119" x="11" y="212.7871">Gas Limit: 270,447</text><text fill="#000000" font-family="sans-serif" font-size="13" lengthAdjust="spacing" textLength="118" x="11" y="228.0977">Gas Used: 180,298</text><text fill="#000000" font-family="sans-serif" font-size="13" lengthAdjust="spacing" textLength="114" x="11" y="243.4082">Tx Fee: 0.005 ETH</text><polygon fill="#181818" points="351,365.3242,361,369.3242,351,373.3242,355,369.3242" style="stroke:#181818;stroke-width:1.0;"/><line style="stroke:#181818;stroke-width:1.0;" x1="88" x2="357" y1="369.3242" y2="369.3242"/><text fill="#000000" font-family="sans-serif" font-size="13" lengthAdjust="spacing" textLength="63" x="95" y="272.7188">takeSwap(</text><text fill="#000000" font-family="sans-serif" font-size="13" lengthAdjust="spacing" textLength="178" x="103" y="288.0293">sourceToken: 0xa3C2..f1b2,</text><text fill="#000000" font-family="sans-serif" font-size="13" lengthAdjust="spacing" textLength="210" x="103" y="303.3398">destinationToken: 0x84d7..9495,</text><text fill="#000000" font-family="sans-serif" font-size="13" lengthAdjust="spacing" textLength="203" x="103" y="318.6504">destinationChainId: 11,155,111,</text><text fill="#000000" font-family="sans-serif" font-size="13" lengthAdjust="spacing" textLength="216" x="103" y="333.9609">rate: 1,,000,000,000,000,000,000,</text><text fill="#000000" font-family="sans-serif" font-size="13" lengthAdjust="spacing" textLength="248" x="103" y="349.2715">amount: 11,,000,000,000,000,000,000)</text><text fill="#000000" font-family="sans-serif" font-size="13" lengthAdjust="spacing" textLength="78" x="95" y="364.582">180,298 gas</text><polygon fill="#181818" points="642,455.877,652,459.877,642,463.877,646,459.877" style="stroke:#181818;stroke-width:1.0;"/><line style="stroke:#181818;stroke-width:1.0;" x1="373" x2="648" y1="459.877" y2="459.877"/><text fill="#000000" font-family="sans-serif" font-size="13" lengthAdjust="spacing" textLength="85" x="380" y="393.8926">transferFrom(</text><text fill="#000000" font-family="sans-serif" font-size="13" lengthAdjust="spacing" textLength="129" x="388" y="409.2031">from: 0x589F..5233,</text><text fill="#000000" font-family="sans-serif" font-size="13" lengthAdjust="spacing" textLength="109" x="388" y="424.5137">to: 0xa47f..0582,</text><text fill="#000000" font-family="sans-serif" font-size="13" lengthAdjust="spacing" textLength="233" x="388" y="439.8242">value: 11,,000,000,000,000,000,000)</text><text fill="#000000" font-family="sans-serif" font-size="13" lengthAdjust="spacing" textLength="70" x="380" y="455.1348">19,361 gas</text><polygon fill="#181818" points="384,485.1875,374,489.1875,384,493.1875,380,489.1875" style="stroke:#181818;stroke-width:1.0;"/><line style="stroke:#181818;stroke-width:1.0;stroke-dasharray:2.0,2.0;" x1="378" x2="658" y1="489.1875" y2="489.1875"/><text fill="#000000" font-family="sans-serif" font-size="13" lengthAdjust="spacing" textLength="25" x="390" y="484.4453">true</text><polygon fill="#181818" points="776,636.9824,786,640.9824,776,644.9824,780,640.9824" style="stroke:#181818;stroke-width:1.0;"/><line style="stroke:#181818;stroke-width:1.0;" x1="373" x2="782" y1="640.9824" y2="640.9824"/><text fill="#000000" font-family="sans-serif" font-size="13" lengthAdjust="spacing" textLength="45" x="380" y="513.7559">getFee(</text><text fill="#000000" font-family="sans-serif" font-size="13" lengthAdjust="spacing" textLength="357" x="388" y="529.0664">destinationChainSelector: 16,,015,286,601,757,825,753,</text><text fill="#000000" font-family="sans-serif" font-size="13" lengthAdjust="spacing" textLength="67" x="388" y="544.377">message: [</text><text fill="#000000" font-family="sans-serif" font-size="13" lengthAdjust="spacing" textLength="213" x="396" y="559.6875">receiver: 0x00000000..10951bb7,</text><text fill="#000000" font-family="sans-serif" font-size="13" lengthAdjust="spacing" textLength="187" x="396" y="574.998">data: 0xc3a5273a..314c0000,</text><text fill="#000000" font-family="sans-serif" font-size="13" lengthAdjust="spacing" textLength="109" x="396" y="590.3086">tokenAmounts: ],</text><text fill="#000000" font-family="sans-serif" font-size="13" lengthAdjust="spacing" textLength="158" x="396" y="605.6191">feeToken: 0x0b9d..7846,</text><text fill="#000000" font-family="sans-serif" font-size="13" lengthAdjust="spacing" textLength="227" x="396" y="620.9297">extraArgs: 0x97a657c9..00000000])</text><text fill="#000000" font-family="sans-serif" font-size="13" lengthAdjust="spacing" textLength="70" x="380" y="636.2402">25,337 gas</text><polygon fill="#181818" points="1097,773.4668,1107,777.4668,1097,781.4668,1101,777.4668" style="stroke:#181818;stroke-width:1.0;"/><line style="stroke:#181818;stroke-width:1.0;" x1="798" x2="1103" y1="777.4668" y2="777.4668"/><text fill="#000000" font-family="sans-serif" font-size="13" lengthAdjust="spacing" textLength="45" x="805" y="665.5508">getFee(</text><text fill="#000000" font-family="sans-serif" font-size="13" lengthAdjust="spacing" textLength="67" x="813" y="680.8613">message: [</text><text fill="#000000" font-family="sans-serif" font-size="13" lengthAdjust="spacing" textLength="213" x="821" y="696.1719">receiver: 0x00000000..10951bb7,</text><text fill="#000000" font-family="sans-serif" font-size="13" lengthAdjust="spacing" textLength="187" x="821" y="711.4824">data: 0xc3a5273a..314c0000,</text><text fill="#000000" font-family="sans-serif" font-size="13" lengthAdjust="spacing" textLength="109" x="821" y="726.793">tokenAmounts: ],</text><text fill="#000000" font-family="sans-serif" font-size="13" lengthAdjust="spacing" textLength="158" x="821" y="742.1035">feeToken: 0x0b9d..7846,</text><text fill="#000000" font-family="sans-serif" font-size="13" lengthAdjust="spacing" textLength="227" x="821" y="757.4141">extraArgs: 0x97a657c9..00000000])</text><text fill="#000000" font-family="sans-serif" font-size="13" lengthAdjust="spacing" textLength="70" x="805" y="772.7246">16,419 gas</text><polygon fill="#181818" points="1447,848.709,1457,852.709,1447,856.709,1451,852.709" style="stroke:#181818;stroke-width:1.0;"/><line style="stroke:#181818;stroke-width:1.0;" x1="1119" x2="1453" y1="852.709" y2="852.709"/><text fill="#000000" font-family="sans-serif" font-size="13" lengthAdjust="spacing" textLength="148" x="1126" y="802.0352">getTokenAndGasPrices(</text><text fill="#000000" font-family="sans-serif" font-size="13" lengthAdjust="spacing" textLength="136" x="1134" y="817.3457">token: 0x0b9d..7846,</text><text fill="#000000" font-family="sans-serif" font-size="13" lengthAdjust="spacing" textLength="313" x="1134" y="832.6563">destChainSelector: 16,,015,286,601,757,825,753)</text><text fill="#000000" font-family="sans-serif" font-size="13" lengthAdjust="spacing" textLength="62" x="1126" y="847.9668">5,540 gas</text><polygon fill="#181818" points="1130,893.3301,1120,897.3301,1130,901.3301,1126,897.3301" style="stroke:#181818;stroke-width:1.0;"/><line style="stroke:#181818;stroke-width:1.0;stroke-dasharray:2.0,2.0;" x1="1124" x2="1463" y1="897.3301" y2="897.3301"/><text fill="#000000" font-family="sans-serif" font-size="13" lengthAdjust="spacing" textLength="258" x="1136" y="877.2773">tokenPrice: 6,,500,000,000,000,000,000,</text><text fill="#000000" font-family="sans-serif" font-size="13" lengthAdjust="spacing" textLength="214" x="1136" y="892.5879">gasPriceValue: 2,153,026,503,000</text><polygon fill="#181818" points="809,922.6406,799,926.6406,809,930.6406,805,926.6406" style="stroke:#181818;stroke-width:1.0;"/><line style="stroke:#181818;stroke-width:1.0;stroke-dasharray:2.0,2.0;" x1="803" x2="1113" y1="926.6406" y2="926.6406"/><text fill="#000000" font-family="sans-serif" font-size="13" lengthAdjust="spacing" textLength="164" x="815" y="921.8984">524,450,503,366,963,692</text><path d="M1119,939.6406 L1119,979.6406 L1210,979.6406 L1210,949.6406 L1200,939.6406 L1119,939.6406 " fill="#FEFFDD" style="stroke:#181818;stroke-width:0.5;"/><path d="M1200,939.6406 L1200,949.6406 L1210,949.6406 L1200,939.6406 " fill="#FEFFDD" style="stroke:#181818;stroke-width:0.5;"/><text fill="#000000" font-family="sans-serif" font-size="13" lengthAdjust="spacing" textLength="4" x="1125" y="957.209">&#160;</text><text fill="#000000" font-family="sans-serif" font-size="13" lengthAdjust="spacing" textLength="70" x="1125" y="972.5195">10,879 gas</text><polygon fill="#181818" points="384,1002.5723,374,1006.5723,384,1010.5723,380,1006.5723" style="stroke:#181818;stroke-width:1.0;"/><line style="stroke:#181818;stroke-width:1.0;stroke-dasharray:2.0,2.0;" x1="378" x2="792" y1="1006.5723" y2="1006.5723"/><text fill="#000000" font-family="sans-serif" font-size="13" lengthAdjust="spacing" textLength="191" x="390" y="1001.8301">fee: 524,450,503,366,963,692</text><path d="M798,1019.5723 L798,1059.5723 L881,1059.5723 L881,1029.5723 L871,1019.5723 L798,1019.5723 " fill="#FEFFDD" style="stroke:#181818;stroke-width:0.5;"/><path d="M871,1019.5723 L871,1029.5723 L881,1029.5723 L871,1019.5723 " fill="#FEFFDD" style="stroke:#181818;stroke-width:0.5;"/><text fill="#000000" font-family="sans-serif" font-size="13" lengthAdjust="spacing" textLength="4" x="804" y="1037.1406">&#160;</text><text fill="#000000" font-family="sans-serif" font-size="13" lengthAdjust="spacing" textLength="62" x="804" y="1052.4512">8,918 gas</text><polygon fill="#181818" points="1571,1113.125,1581,1117.125,1571,1121.125,1575,1117.125" style="stroke:#181818;stroke-width:1.0;"/><line style="stroke:#181818;stroke-width:1.0;" x1="373" x2="1577" y1="1117.125" y2="1117.125"/><text fill="#000000" font-family="sans-serif" font-size="13" lengthAdjust="spacing" textLength="67" x="380" y="1081.7617">balanceOf(</text><text fill="#000000" font-family="sans-serif" font-size="13" lengthAdjust="spacing" textLength="141" x="388" y="1097.0723">_owner: 0xa47f..0582)</text><text fill="#000000" font-family="sans-serif" font-size="13" lengthAdjust="spacing" textLength="62" x="380" y="1112.3828">2,660 gas</text><polygon fill="#181818" points="384,1142.4355,374,1146.4355,384,1150.4355,380,1146.4355" style="stroke:#181818;stroke-width:1.0;"/><line style="stroke:#181818;stroke-width:1.0;stroke-dasharray:2.0,2.0;" x1="378" x2="1587" y1="1146.4355" y2="1146.4355"/><text fill="#000000" font-family="sans-serif" font-size="13" lengthAdjust="spacing" textLength="236" x="390" y="1141.6934">balance: 1,,426,648,489,899,108,924</text><polygon fill="#181818" points="776,1294.2305,786,1298.2305,776,1302.2305,780,1298.2305" style="stroke:#181818;stroke-width:1.0;"/><line style="stroke:#181818;stroke-width:1.0;" x1="373" x2="782" y1="1298.2305" y2="1298.2305"/><text fill="#000000" font-family="sans-serif" font-size="13" lengthAdjust="spacing" textLength="60" x="380" y="1171.0039">ccipSend(</text><text fill="#000000" font-family="sans-serif" font-size="13" lengthAdjust="spacing" textLength="357" x="388" y="1186.3145">destinationChainSelector: 16,,015,286,601,757,825,753,</text><text fill="#000000" font-family="sans-serif" font-size="13" lengthAdjust="spacing" textLength="67" x="388" y="1201.625">message: [</text><text fill="#000000" font-family="sans-serif" font-size="13" lengthAdjust="spacing" textLength="213" x="396" y="1216.9355">receiver: 0x00000000..10951bb7,</text><text fill="#000000" font-family="sans-serif" font-size="13" lengthAdjust="spacing" textLength="187" x="396" y="1232.2461">data: 0xc3a5273a..314c0000,</text><text fill="#000000" font-family="sans-serif" font-size="13" lengthAdjust="spacing" textLength="109" x="396" y="1247.5566">tokenAmounts: ],</text><text fill="#000000" font-family="sans-serif" font-size="13" lengthAdjust="spacing" textLength="158" x="396" y="1262.8672">feeToken: 0x0b9d..7846,</text><text fill="#000000" font-family="sans-serif" font-size="13" lengthAdjust="spacing" textLength="227" x="396" y="1278.1777">extraArgs: 0x97a657c9..00000000])</text><text fill="#000000" font-family="sans-serif" font-size="13" lengthAdjust="spacing" textLength="70" x="380" y="1293.4883">70,726 gas</text><polygon fill="#181818" points="1693,1338.8516,1703,1342.8516,1693,1346.8516,1697,1342.8516" style="stroke:#181818;stroke-width:1.0;"/><line style="stroke:#181818;stroke-width:1.0;stroke-dasharray:2.0,2.0;" x1="798" x2="1699" y1="1342.8516" y2="1342.8516"/><text fill="#000000" font-family="sans-serif" font-size="13" lengthAdjust="spacing" textLength="63" x="805" y="1322.7988">isCursed()</text><text fill="#000000" font-family="sans-serif" font-size="13" lengthAdjust="spacing" textLength="62" x="805" y="1338.1094">7,456 gas</text><polygon fill="#181818" points="1809.5,1383.4727,1819.5,1387.4727,1809.5,1391.4727,1813.5,1387.4727" style="stroke:#181818;stroke-width:1.0;"/><line style="stroke:#181818;stroke-width:1.0;" x1="1715" x2="1815.5" y1="1387.4727" y2="1387.4727"/><text fill="#000000" font-family="sans-serif" font-size="13" lengthAdjust="spacing" textLength="63" x="1722" y="1367.4199">isCursed()</text><text fill="#000000" font-family="sans-serif" font-size="13" lengthAdjust="spacing" textLength="62" x="1722" y="1382.7305">2,394 gas</text><polygon fill="#181818" points="1726,1412.7832,1716,1416.7832,1726,1420.7832,1722,1416.7832" style="stroke:#181818;stroke-width:1.0;"/><line style="stroke:#181818;stroke-width:1.0;stroke-dasharray:2.0,2.0;" x1="1720" x2="1825.5" y1="1416.7832" y2="1416.7832"/><text fill="#000000" font-family="sans-serif" font-size="13" lengthAdjust="spacing" textLength="30" x="1732" y="1412.041">false</text><polygon fill="#181818" points="809,1442.0938,799,1446.0938,809,1450.0938,805,1446.0938" style="stroke:#181818;stroke-width:1.0;"/><line style="stroke:#181818;stroke-width:1.0;stroke-dasharray:2.0,2.0;" x1="803" x2="1709" y1="1446.0938" y2="1446.0938"/><text fill="#000000" font-family="sans-serif" font-size="13" lengthAdjust="spacing" textLength="30" x="815" y="1441.3516">false</text><path d="M1715,1459.0938 L1715,1499.0938 L1798,1499.0938 L1798,1469.0938 L1788,1459.0938 L1715,1459.0938 " fill="#FEFFDD" style="stroke:#181818;stroke-width:0.5;"/><path d="M1788,1459.0938 L1788,1469.0938 L1798,1469.0938 L1788,1459.0938 " fill="#FEFFDD" style="stroke:#181818;stroke-width:0.5;"/><text fill="#000000" font-family="sans-serif" font-size="13" lengthAdjust="spacing" textLength="4" x="1721" y="1476.6621">&#160;</text><text fill="#000000" font-family="sans-serif" font-size="13" lengthAdjust="spacing" textLength="62" x="1721" y="1491.9727">5,062 gas</text><polygon fill="#181818" points="1097,1629.1992,1107,1633.1992,1097,1637.1992,1101,1633.1992" style="stroke:#181818;stroke-width:1.0;"/><line style="stroke:#181818;stroke-width:1.0;" x1="798" x2="1103" y1="1633.1992" y2="1633.1992"/><text fill="#000000" font-family="sans-serif" font-size="13" lengthAdjust="spacing" textLength="45" x="805" y="1521.2832">getFee(</text><text fill="#000000" font-family="sans-serif" font-size="13" lengthAdjust="spacing" textLength="67" x="813" y="1536.5938">message: [</text><text fill="#000000" font-family="sans-serif" font-size="13" lengthAdjust="spacing" textLength="213" x="821" y="1551.9043">receiver: 0x00000000..10951bb7,</text><text fill="#000000" font-family="sans-serif" font-size="13" lengthAdjust="spacing" textLength="187" x="821" y="1567.2148">data: 0xc3a5273a..314c0000,</text><text fill="#000000" font-family="sans-serif" font-size="13" lengthAdjust="spacing" textLength="109" x="821" y="1582.5254">tokenAmounts: ],</text><text fill="#000000" font-family="sans-serif" font-size="13" lengthAdjust="spacing" textLength="158" x="821" y="1597.8359">feeToken: 0x0b9d..7846,</text><text fill="#000000" font-family="sans-serif" font-size="13" lengthAdjust="spacing" textLength="227" x="821" y="1613.1465">extraArgs: 0x97a657c9..00000000])</text><text fill="#000000" font-family="sans-serif" font-size="13" lengthAdjust="spacing" textLength="62" x="805" y="1628.457">5,919 gas</text><polygon fill="#181818" points="1447,1704.4414,1457,1708.4414,1447,1712.4414,1451,1708.4414" style="stroke:#181818;stroke-width:1.0;"/><line style="stroke:#181818;stroke-width:1.0;" x1="1119" x2="1453" y1="1708.4414" y2="1708.4414"/><text fill="#000000" font-family="sans-serif" font-size="13" lengthAdjust="spacing" textLength="148" x="1126" y="1657.7676">getTokenAndGasPrices(</text><text fill="#000000" font-family="sans-serif" font-size="13" lengthAdjust="spacing" textLength="136" x="1134" y="1673.0781">token: 0x0b9d..7846,</text><text fill="#000000" font-family="sans-serif" font-size="13" lengthAdjust="spacing" textLength="313" x="1134" y="1688.3887">destChainSelector: 16,,015,286,601,757,825,753)</text><text fill="#000000" font-family="sans-serif" font-size="13" lengthAdjust="spacing" textLength="62" x="1126" y="1703.6992">1,540 gas</text><polygon fill="#181818" points="1130,1749.0625,1120,1753.0625,1130,1757.0625,1126,1753.0625" style="stroke:#181818;stroke-width:1.0;"/><line style="stroke:#181818;stroke-width:1.0;stroke-dasharray:2.0,2.0;" x1="1124" x2="1463" y1="1753.0625" y2="1753.0625"/><text fill="#000000" font-family="sans-serif" font-size="13" lengthAdjust="spacing" textLength="258" x="1136" y="1733.0098">tokenPrice: 6,,500,000,000,000,000,000,</text><text fill="#000000" font-family="sans-serif" font-size="13" lengthAdjust="spacing" textLength="214" x="1136" y="1748.3203">gasPriceValue: 2,153,026,503,000</text><polygon fill="#181818" points="809,1778.373,799,1782.373,809,1786.373,805,1782.373" style="stroke:#181818;stroke-width:1.0;"/><line style="stroke:#181818;stroke-width:1.0;stroke-dasharray:2.0,2.0;" x1="803" x2="1113" y1="1782.373" y2="1782.373"/><text fill="#000000" font-family="sans-serif" font-size="13" lengthAdjust="spacing" textLength="164" x="815" y="1777.6309">524,450,503,366,963,692</text><path d="M1119,1795.373 L1119,1835.373 L1202,1835.373 L1202,1805.373 L1192,1795.373 L1119,1795.373 " fill="#FEFFDD" style="stroke:#181818;stroke-width:0.5;"/><path d="M1192,1795.373 L1192,1805.373 L1202,1805.373 L1192,1795.373 " fill="#FEFFDD" style="stroke:#181818;stroke-width:0.5;"/><text fill="#000000" font-family="sans-serif" font-size="13" lengthAdjust="spacing" textLength="4" x="1125" y="1812.9414">&#160;</text><text fill="#000000" font-family="sans-serif" font-size="13" lengthAdjust="spacing" textLength="62" x="1125" y="1828.252">4,379 gas</text><polygon fill="#181818" points="1571,1919.5469,1581,1923.5469,1571,1927.5469,1575,1923.5469" style="stroke:#181818;stroke-width:1.0;"/><line style="stroke:#181818;stroke-width:1.0;" x1="798" x2="1577" y1="1923.5469" y2="1923.5469"/><text fill="#000000" font-family="sans-serif" font-size="13" lengthAdjust="spacing" textLength="85" x="805" y="1857.5625">transferFrom(</text><text fill="#000000" font-family="sans-serif" font-size="13" lengthAdjust="spacing" textLength="133" x="813" y="1872.873">_from: 0xa47f..0582,</text><text fill="#000000" font-family="sans-serif" font-size="13" lengthAdjust="spacing" textLength="120" x="813" y="1888.1836">_to: 0xA799..AEc4,</text><text fill="#000000" font-family="sans-serif" font-size="13" lengthAdjust="spacing" textLength="216" x="813" y="1903.4941">_value: 524,450,503,366,963,692)</text><text fill="#000000" font-family="sans-serif" font-size="13" lengthAdjust="spacing" textLength="70" x="805" y="1918.8047">16,588 gas</text><polygon fill="#181818" points="809,1948.8574,799,1952.8574,809,1956.8574,805,1952.8574" style="stroke:#181818;stroke-width:1.0;"/><line style="stroke:#181818;stroke-width:1.0;stroke-dasharray:2.0,2.0;" x1="803" x2="1587" y1="1952.8574" y2="1952.8574"/><text fill="#000000" font-family="sans-serif" font-size="13" lengthAdjust="spacing" textLength="25" x="815" y="1948.1152">true</text><polygon fill="#181818" points="1097,2115.9629,1107,2119.9629,1097,2123.9629,1101,2119.9629" style="stroke:#181818;stroke-width:1.0;"/><line style="stroke:#181818;stroke-width:1.0;" x1="798" x2="1103" y1="2119.9629" y2="2119.9629"/><text fill="#000000" font-family="sans-serif" font-size="13" lengthAdjust="spacing" textLength="125" x="805" y="1977.4258">forwardFromRouter(</text><text fill="#000000" font-family="sans-serif" font-size="13" lengthAdjust="spacing" textLength="67" x="813" y="1992.7363">message: [</text><text fill="#000000" font-family="sans-serif" font-size="13" lengthAdjust="spacing" textLength="213" x="821" y="2008.0469">receiver: 0x00000000..10951bb7,</text><text fill="#000000" font-family="sans-serif" font-size="13" lengthAdjust="spacing" textLength="187" x="821" y="2023.3574">data: 0xc3a5273a..314c0000,</text><text fill="#000000" font-family="sans-serif" font-size="13" lengthAdjust="spacing" textLength="109" x="821" y="2038.668">tokenAmounts: ],</text><text fill="#000000" font-family="sans-serif" font-size="13" lengthAdjust="spacing" textLength="158" x="821" y="2053.9785">feeToken: 0x0b9d..7846,</text><text fill="#000000" font-family="sans-serif" font-size="13" lengthAdjust="spacing" textLength="227" x="821" y="2069.2891">extraArgs: 0x97a657c9..00000000],</text><text fill="#000000" font-family="sans-serif" font-size="13" lengthAdjust="spacing" textLength="284" x="813" y="2084.5996">feeTokenAmount: 524,450,503,366,963,692,</text><text fill="#000000" font-family="sans-serif" font-size="13" lengthAdjust="spacing" textLength="186" x="813" y="2099.9102">originalSender: 0xa47f..0582)</text><text fill="#000000" font-family="sans-serif" font-size="13" lengthAdjust="spacing" textLength="70" x="805" y="2115.2207">30,132 gas</text><polygon fill="#181818" points="1693,2160.584,1703,2164.584,1693,2168.584,1697,2164.584" style="stroke:#181818;stroke-width:1.0;"/><line style="stroke:#181818;stroke-width:1.0;stroke-dasharray:2.0,2.0;" x1="1119" x2="1699" y1="2164.584" y2="2164.584"/><text fill="#000000" font-family="sans-serif" font-size="13" lengthAdjust="spacing" textLength="63" x="1126" y="2144.5313">isCursed()</text><text fill="#000000" font-family="sans-serif" font-size="13" lengthAdjust="spacing" textLength="50" x="1126" y="2159.8418">956 gas</text><polygon fill="#181818" points="1809.5,2205.2051,1819.5,2209.2051,1809.5,2213.2051,1813.5,2209.2051" style="stroke:#181818;stroke-width:1.0;"/><line style="stroke:#181818;stroke-width:1.0;" x1="1715" x2="1815.5" y1="2209.2051" y2="2209.2051"/><text fill="#000000" font-family="sans-serif" font-size="13" lengthAdjust="spacing" textLength="63" x="1722" y="2189.1523">isCursed()</text><text fill="#000000" font-family="sans-serif" font-size="13" lengthAdjust="spacing" textLength="50" x="1722" y="2204.4629">394 gas</text><polygon fill="#181818" points="1726,2234.5156,1716,2238.5156,1726,2242.5156,1722,2238.5156" style="stroke:#181818;stroke-width:1.0;"/><line style="stroke:#181818;stroke-width:1.0;stroke-dasharray:2.0,2.0;" x1="1720" x2="1825.5" y1="2238.5156" y2="2238.5156"/><text fill="#000000" font-family="sans-serif" font-size="13" lengthAdjust="spacing" textLength="30" x="1732" y="2233.7734">false</text><polygon fill="#181818" points="1130,2263.8262,1120,2267.8262,1130,2271.8262,1126,2267.8262" style="stroke:#181818;stroke-width:1.0;"/><line style="stroke:#181818;stroke-width:1.0;stroke-dasharray:2.0,2.0;" x1="1124" x2="1709" y1="2267.8262" y2="2267.8262"/><text fill="#000000" font-family="sans-serif" font-size="13" lengthAdjust="spacing" textLength="30" x="1136" y="2263.084">false</text><path d="M1715,2280.8262 L1715,2320.8262 L1786,2320.8262 L1786,2290.8262 L1776,2280.8262 L1715,2280.8262 " fill="#FEFFDD" style="stroke:#181818;stroke-width:0.5;"/><path d="M1776,2280.8262 L1776,2290.8262 L1786,2290.8262 L1776,2280.8262 " fill="#FEFFDD" style="stroke:#181818;stroke-width:0.5;"/><text fill="#000000" font-family="sans-serif" font-size="13" lengthAdjust="spacing" textLength="4" x="1721" y="2298.3945">&#160;</text><text fill="#000000" font-family="sans-serif" font-size="13" lengthAdjust="spacing" textLength="50" x="1721" y="2313.7051">562 gas</text><polygon fill="#181818" points="809,2343.7578,799,2347.7578,809,2351.7578,805,2347.7578" style="stroke:#181818;stroke-width:1.0;"/><line style="stroke:#181818;stroke-width:1.0;stroke-dasharray:2.0,2.0;" x1="803" x2="1113" y1="2347.7578" y2="2347.7578"/><text fill="#000000" font-family="sans-serif" font-size="13" lengthAdjust="spacing" textLength="148" x="815" y="2343.0156">0x59cc422c..b86c5b15</text><path d="M1119,2360.7578 L1119,2400.7578 L1210,2400.7578 L1210,2370.7578 L1200,2360.7578 L1119,2360.7578 " fill="#FEFFDD" style="stroke:#181818;stroke-width:0.5;"/><path d="M1200,2360.7578 L1200,2370.7578 L1210,2370.7578 L1200,2360.7578 " fill="#FEFFDD" style="stroke:#181818;stroke-width:0.5;"/><text fill="#000000" font-family="sans-serif" font-size="13" lengthAdjust="spacing" textLength="4" x="1125" y="2378.3262">&#160;</text><text fill="#000000" font-family="sans-serif" font-size="13" lengthAdjust="spacing" textLength="70" x="1125" y="2393.6367">29,176 gas</text><polygon fill="#181818" points="384,2423.6895,374,2427.6895,384,2431.6895,380,2427.6895" style="stroke:#181818;stroke-width:1.0;"/><line style="stroke:#181818;stroke-width:1.0;stroke-dasharray:2.0,2.0;" x1="378" x2="792" y1="2427.6895" y2="2427.6895"/><text fill="#000000" font-family="sans-serif" font-size="13" lengthAdjust="spacing" textLength="148" x="390" y="2422.9473">0x59cc422c..b86c5b15</text><path d="M798,2440.6895 L798,2480.6895 L889,2480.6895 L889,2450.6895 L879,2440.6895 L798,2440.6895 " fill="#FEFFDD" style="stroke:#181818;stroke-width:0.5;"/><path d="M879,2440.6895 L879,2450.6895 L889,2450.6895 L879,2440.6895 " fill="#FEFFDD" style="stroke:#181818;stroke-width:0.5;"/><text fill="#000000" font-family="sans-serif" font-size="13" lengthAdjust="spacing" textLength="4" x="804" y="2458.2578">&#160;</text><text fill="#000000" font-family="sans-serif" font-size="13" lengthAdjust="spacing" textLength="70" x="804" y="2473.5684">10,631 gas</text><polygon fill="#181818" points="99,2488.3105,89,2492.3105,99,2496.3105,95,2492.3105" style="stroke:#181818;stroke-width:1.0;"/><line style="stroke:#181818;stroke-width:1.0;stroke-dasharray:2.0,2.0;" x1="93" x2="367" y1="2492.3105" y2="2492.3105"/><path d="M373,2505.3105 L373,2545.3105 L464,2545.3105 L464,2515.3105 L454,2505.3105 L373,2505.3105 " fill="#FEFFDD" style="stroke:#181818;stroke-width:0.5;"/><path d="M454,2505.3105 L454,2515.3105 L464,2515.3105 L454,2505.3105 " fill="#FEFFDD" style="stroke:#181818;stroke-width:0.5;"/><text fill="#000000" font-family="sans-serif" font-size="13" lengthAdjust="spacing" textLength="4" x="379" y="2522.8789">&#160;</text><text fill="#000000" font-family="sans-serif" font-size="13" lengthAdjust="spacing" textLength="70" x="379" y="2538.1895">62,214 gas</text><path d="M216,2555.9316 L216,2610.9316 L520,2610.9316 L520,2565.9316 L510,2555.9316 L216,2555.9316 " fill="#00FFFF" style="stroke:#181818;stroke-width:0.5;"/><path d="M510,2555.9316 L510,2565.9316 L520,2565.9316 L510,2555.9316 " fill="#00FFFF" style="stroke:#181818;stroke-width:0.5;"/><text fill="#000000" font-family="sans-serif" font-size="13" lengthAdjust="spacing" textLength="66" x="222" y="2573.5">TakeSwap:</text><text fill="#000000" font-family="sans-serif" font-size="13" lengthAdjust="spacing" textLength="227" x="230" y="2588.8105">messageId: 0x59cc422c..b86c5b15,</text><text fill="#000000" font-family="sans-serif" font-size="13" lengthAdjust="spacing" textLength="275" x="230" y="2604.1211">destinationPoolKey: 0xb9e32235..2b7038fe</text><path d="M530,2555.9316 L530,2626.9316 L788,2626.9316 L788,2565.9316 L778,2555.9316 L530,2555.9316 " fill="#00FFFF" style="stroke:#181818;stroke-width:0.5;"/><path d="M778,2555.9316 L778,2565.9316 L788,2565.9316 L778,2555.9316 " fill="#00FFFF" style="stroke:#181818;stroke-width:0.5;"/><text fill="#000000" font-family="sans-serif" font-size="13" lengthAdjust="spacing" textLength="56" x="536" y="2573.5">Transfer:</text><text fill="#000000" font-family="sans-serif" font-size="13" lengthAdjust="spacing" textLength="129" x="544" y="2588.8105">from: 0x589F..5233,</text><text fill="#000000" font-family="sans-serif" font-size="13" lengthAdjust="spacing" textLength="109" x="544" y="2604.1211">to: 0xa47f..0582,</text><text fill="#000000" font-family="sans-serif" font-size="13" lengthAdjust="spacing" textLength="229" x="544" y="2619.4316">value: 11,,000,000,000,000,000,000</text><path d="M931,2555.9316 L931,2779.9316 L1296,2779.9316 L1296,2565.9316 L1286,2555.9316 L931,2555.9316 " fill="#00FFFF" style="stroke:#181818;stroke-width:0.5;"/><path d="M1286,2555.9316 L1286,2565.9316 L1296,2565.9316 L1286,2555.9316 " fill="#00FFFF" style="stroke:#181818;stroke-width:0.5;"/><text fill="#000000" font-family="sans-serif" font-size="13" lengthAdjust="spacing" textLength="128" x="937" y="2573.5">CCIPSendRequested:</text><text fill="#000000" font-family="sans-serif" font-size="13" lengthAdjust="spacing" textLength="67" x="945" y="2588.8105">message: [</text><text fill="#000000" font-family="sans-serif" font-size="13" lengthAdjust="spacing" textLength="328" x="953" y="2604.1211">sourceChainSelector: 14,,767,482,510,784,806,043,</text><text fill="#000000" font-family="sans-serif" font-size="13" lengthAdjust="spacing" textLength="157" x="953" y="2619.4316">sequenceNumber: 9,470,</text><text fill="#000000" font-family="sans-serif" font-size="13" lengthAdjust="spacing" textLength="284" x="953" y="2634.7422">feeTokenAmount: 524,450,503,366,963,692,</text><text fill="#000000" font-family="sans-serif" font-size="13" lengthAdjust="spacing" textLength="138" x="953" y="2650.0527">sender: 0xa47f..0582,</text><text fill="#000000" font-family="sans-serif" font-size="13" lengthAdjust="spacing" textLength="58" x="953" y="2665.3633">nonce: 4,</text><text fill="#000000" font-family="sans-serif" font-size="13" lengthAdjust="spacing" textLength="130" x="953" y="2680.6738">gasLimit: 1,000,000,</text><text fill="#000000" font-family="sans-serif" font-size="13" lengthAdjust="spacing" textLength="75" x="953" y="2695.9844">strict: false,</text><text fill="#000000" font-family="sans-serif" font-size="13" lengthAdjust="spacing" textLength="146" x="953" y="2711.2949">receiver: 0xbE29..1BB7,</text><text fill="#000000" font-family="sans-serif" font-size="13" lengthAdjust="spacing" textLength="187" x="953" y="2726.6055">data: 0xc3a5273a..314c0000,</text><text fill="#000000" font-family="sans-serif" font-size="13" lengthAdjust="spacing" textLength="109" x="953" y="2741.916">tokenAmounts: ],</text><text fill="#000000" font-family="sans-serif" font-size="13" lengthAdjust="spacing" textLength="158" x="953" y="2757.2266">feeToken: 0x0b9d..7846,</text><text fill="#000000" font-family="sans-serif" font-size="13" lengthAdjust="spacing" textLength="227" x="953" y="2772.5371">messageId: 0x59cc422c..b86c5b15]</text><path d="M1471,2555.9316 L1471,2626.9316 L1705,2626.9316 L1705,2565.9316 L1695,2555.9316 L1471,2555.9316 " fill="#00FFFF" style="stroke:#181818;stroke-width:0.5;"/><path d="M1695,2555.9316 L1695,2565.9316 L1705,2565.9316 L1695,2555.9316 " fill="#00FFFF" style="stroke:#181818;stroke-width:0.5;"/><text fill="#000000" font-family="sans-serif" font-size="13" lengthAdjust="spacing" textLength="56" x="1477" y="2573.5">Transfer:</text><text fill="#000000" font-family="sans-serif" font-size="13" lengthAdjust="spacing" textLength="126" x="1485" y="2588.8105">from: 0xa47f..0582,</text><text fill="#000000" font-family="sans-serif" font-size="13" lengthAdjust="spacing" textLength="113" x="1485" y="2604.1211">to: 0xA799..AEc4,</text><text fill="#000000" font-family="sans-serif" font-size="13" lengthAdjust="spacing" textLength="205" x="1485" y="2619.4316">value: 524,450,503,366,963,692</text><!--SRC=[vLZVRzms37xtNo5qBncWUP8isTAXA70zf5tHfWsIh2zB4SYsV3LoPwUsBqd_-r6MxDpF9CFsi6u5WeGoIP7KnuzIkx9R64JkioXFJ6eAHcNAJS89DImk2fLp6cTvKKGfKoekSgwaeccUv5mAdPCqAMAHvL4S19c-wSgwGjcgxUebHkcYpguHIsIISCanEjSTHbIYZ_KjOeH5Y2QJY4n4WjwUN0Gww-e6lI3tGgeY30MBeXT8jyYALa31ZMwwCYjlTDLPFSqJq2D2ibxFYbP0Br_EchfjPrzrMPtVwPiRqxnwjMCSPImC2vfwOn2j0COd4FJnsOoHNICXE0z3oNBf8WFH2c1qLg-wlTiaIeMXDXbtsu1e1R0u_dp2uETJTQQNDxk6XZCJXbpcHMzeHIk0uMbJPkRCpCksQxxl6f9KvM6OI1xtXbQq0XX-AAlhY_hQL7l2p6Hc4wEf2nD4Au3HzEpajAdlzsraD0b3AgIBq8fMS3QW7bHrPr1zQvhn28EFTPMP2Kg2js3H9p81V8IAehTtfWnEz3rwOs0jOXjhe5atPVSTbCTrw-53kImxwu5WpftJtrkJJm1a13CbWmllZuI427HyyLjWgXpPm89WnDKlhqRiJ52dhuq5pT5bXL1RhvhCz3K37u2PcSSCjbzpqtPbfItaHnN9yoGC5LTYMwM7upiR6yLK24pXjrLfT0S1Kem98Nj_h99UrgkgwsqFwVryMVciqLotjflAMt0zfXQC_M7pzN27V1jTjOLftZJrii-vW3zi9b2UDwuB-mYwkg_0s7BzugrUhCoJKIaSnNGhABz_q9XkrLGGnSfi13YqrWJDJGT7UBIlckTcOInfG0GnH405PZB6CQ4u4GcMJC1l5_tIjAsUGwX_M0cARZ9J0Z9jJiJ_0omJ9MYQ9jWfvRhJavuOjM19fCCmeZmZmvdOci2fJ_kZQIVeYryjp0DY7fhHVpJtKF1fCs_jLvNeM2GP4CGGmnUe5uGTHSbclOPo12Fbs4FqPB9HenyfKpWrJjKMCdnImKYLaEd0Vdsc_PRJAeTkxncaFNBut1-8nSppmG912ImusOnfs7v4gztBinVu4WSRT-v3_EpwX47ZHvYm64mYgp8u58nZBaY_7CKnLd64OyKSWpRb_6k7wcBjlA5q1Cl4bSxxA2pFFS_HGtDTLX8hwXbZhVs6gJ51gLveuEnFHL_bg_gkSbXwO08BMHp7MpKRF0pXUJyzqt6eGCmbvb9XgHIc1A9W_001P31ope6s_qSK0FCiOV6J560vm4_g2IhRsQg1uNTaxG44M-Q3OZ3ETdlCVcPlMZCSARvrcbvn19jUj6PJsCBg69VjA1Aptjz_Yhq4TCw_ZRpe3q5U74UUkzO1yS0vEtUIg-5IidN_k7Atacb_oPuUPzoj-cl9WS3Su15IFavO_PLaFs2BkhdJJMx3S_V-7mkxlThWOUflbWUArUl2tNiEfBkmBBo7_IE2QSIUx8I3RAN-1bVzmqpbUSghmoLOPHbd3Dv6gOmpaLBn2AmPJB8a_eiErcSn3FKuekiEjdSRdocNLSmmeoxvjPVME49_qjzMEhZmhvb9CEBJFa7snOM3ZUbwMjUBz-QxrKsLYHYBH1YoD26HBCpQA-fNjBRvy8Zsc_isjfllULK4UnuLmNFU58Ts7v3cTf_DtfrQm9wPRoj82rw5mNgF1hPJtFjkcs4vnaaC8nJY4N0aq5bOaXWJtiSCLjOZt6K-hfQfRGU5EGpiOBqld-egxsUtdToNoZsJkPFWYFr3buvbS0uwu6TOxc7jbjP99prcqFRqzUl4VNk4Qu9zL1CymZJzjoSGzUN0GOt_9N4O9fi5sM7v1vWS6ZxZpdy2]--></g></svg>