<?xml version="1.0" encoding="us-ascii" standalone="no"?><svg xmlns="http://www.w3.org/2000/svg" xmlns:xlink="http://www.w3.org/1999/xlink" contentStyleType="text/css" height="2954px" preserveAspectRatio="none" style="width:1803px;height:2954px;background:#FFFFFF;" version="1.1" viewBox="0 0 1803 2954" width="1803px" zoomAndPan="magnify"><defs/><g><text fill="#000000" font-family="sans-serif" font-size="14" font-weight="bold" lengthAdjust="spacing" textLength="556" x="622.5" y="28.5352">0xec34499f39f389084c1e2f5b6548ed9aca025f0ed3bda8e3c230fa29a1197eec</text><text fill="#000000" font-family="sans-serif" font-size="14" lengthAdjust="spacing" textLength="397" x="702" y="2942.9238">custom, block 27885206, Sat, 18 Nov 2023 22:52:02 GMT</text><rect fill="#FFFFFF" height="2072.4336" style="stroke:#181818;stroke-width:1.0;" width="10" x="309.5" y="568.3613"/><rect fill="#FFFFFF" height="1059.2168" style="stroke:#181818;stroke-width:1.0;" width="10" x="314.5" y="1509.957"/><rect fill="#FFFFFF" height="103.2422" style="stroke:#181818;stroke-width:1.0;" width="10" x="677.5" y="612.9824"/><rect fill="#FFFFFF" height="149.1738" style="stroke:#181818;stroke-width:1.0;" width="10" x="677.5" y="963.2617"/><rect fill="#FFFFFF" height="103.2422" style="stroke:#181818;stroke-width:1.0;" width="10" x="677.5" y="2009.7207"/><rect fill="#FFFFFF" height="29.3105" style="stroke:#181818;stroke-width:1.0;" width="10" x="907.5" y="657.6035"/><rect fill="#FFFFFF" height="29.3105" style="stroke:#181818;stroke-width:1.0;" width="10" x="907.5" y="1053.8145"/><rect fill="#FFFFFF" height="29.3105" style="stroke:#181818;stroke-width:1.0;" width="10" x="907.5" y="2054.3418"/><rect fill="#FFFFFF" height="319.6582" style="stroke:#181818;stroke-width:1.0;" width="10" x="1029.5" y="872.709"/><rect fill="#FFFFFF" height="29.3105" style="stroke:#181818;stroke-width:1.0;" width="10" x="1181.5" y="1574.8887"/><rect fill="#FFFFFF" height="29.3105" style="stroke:#181818;stroke-width:1.0;" width="10" x="1181.5" y="1664.1309"/><rect fill="#FFFFFF" height="29.3105" style="stroke:#181818;stroke-width:1.0;" width="10" x="1181.5" y="1753.373"/><rect fill="#FFFFFF" height="103.2422" style="stroke:#181818;stroke-width:1.0;" width="10" x="1181.5" y="2300.0684"/><rect fill="#FFFFFF" height="533.4531" style="stroke:#181818;stroke-width:1.0;" width="10" x="1554.5" y="1965.0996"/><rect fill="#809ECB" height="29.3105" style="stroke:#181818;stroke-width:1.0;" width="10" x="1738" y="2360"/><line style="stroke:#181818;stroke-width:0.5;stroke-dasharray:5.0,5.0;" x1="80" x2="80" y1="118.9766" y2="2851.9004"/><line style="stroke:#181818;stroke-width:0.5;stroke-dasharray:5.0,5.0;" x1="314" x2="314" y1="118.9766" y2="2851.9004"/><line style="stroke:#181818;stroke-width:0.5;stroke-dasharray:5.0,5.0;" x1="682" x2="682" y1="118.9766" y2="2851.9004"/><line style="stroke:#181818;stroke-width:0.5;stroke-dasharray:5.0,5.0;" x1="912.5" x2="912.5" y1="118.9766" y2="2851.9004"/><line style="stroke:#181818;stroke-width:0.5;stroke-dasharray:5.0,5.0;" x1="1034.5" x2="1034.5" y1="118.9766" y2="2851.9004"/><line style="stroke:#181818;stroke-width:0.5;stroke-dasharray:5.0,5.0;" x1="1186.5" x2="1186.5" y1="118.9766" y2="2851.9004"/><line style="stroke:#181818;stroke-width:0.5;stroke-dasharray:5.0,5.0;" x1="1559.5" x2="1559.5" y1="118.9766" y2="2851.9004"/><line style="stroke:#181818;stroke-width:0.5;stroke-dasharray:5.0,5.0;" x1="1743" x2="1743" y1="118.9766" y2="2851.9004"/><text fill="#000000" font-family="sans-serif" font-size="14" lengthAdjust="spacing" textLength="97" x="29" y="116.0234">0x868e..1b66</text><ellipse cx="80.5" cy="50.9883" fill="#E2E2F0" rx="8" ry="8" style="stroke:#181818;stroke-width:0.5;"/><path d="M80.5,58.9883 L80.5,85.9883 M67.5,66.9883 L93.5,66.9883 M80.5,85.9883 L67.5,100.9883 M80.5,85.9883 L93.5,100.9883 " fill="none" style="stroke:#181818;stroke-width:0.5;"/><text fill="#000000" font-family="sans-serif" font-size="14" lengthAdjust="spacing" textLength="97" x="29" y="2864.4355">0x868e..1b66</text><ellipse cx="80.5" cy="2875.8887" fill="#E2E2F0" rx="8" ry="8" style="stroke:#181818;stroke-width:0.5;"/><path d="M80.5,2883.8887 L80.5,2910.8887 M67.5,2891.8887 L93.5,2891.8887 M80.5,2910.8887 L67.5,2925.8887 M80.5,2910.8887 L93.5,2925.8887 " fill="none" style="stroke:#181818;stroke-width:0.5;"/><rect fill="#E2E2F0" height="46.9766" rx="2.5" ry="2.5" style="stroke:#181818;stroke-width:0.5;" width="155" x="237" y="71"/><text fill="#000000" font-family="sans-serif" font-size="14" font-style="italic" lengthAdjust="spacing" textLength="141" x="244" y="91.5352">&#171;EVM2EVMOffRamp&#187;</text><text fill="#000000" font-family="sans-serif" font-size="14" lengthAdjust="spacing" textLength="95" x="267" y="108.0234">0x61c6..a144</text><rect fill="#E2E2F0" height="46.9766" rx="2.5" ry="2.5" style="stroke:#181818;stroke-width:0.5;" width="155" x="237" y="2850.9004"/><text fill="#000000" font-family="sans-serif" font-size="14" font-style="italic" lengthAdjust="spacing" textLength="141" x="244" y="2871.4355">&#171;EVM2EVMOffRamp&#187;</text><text fill="#000000" font-family="sans-serif" font-size="14" lengthAdjust="spacing" textLength="95" x="267" y="2887.9238">0x61c6..a144</text><rect fill="#E2E2F0" height="46.9766" rx="2.5" ry="2.5" style="stroke:#181818;stroke-width:0.5;" width="107" x="629" y="71"/><text fill="#000000" font-family="sans-serif" font-size="14" font-style="italic" lengthAdjust="spacing" textLength="84" x="640.5" y="91.5352">&#171;ARMProxy&#187;</text><text fill="#000000" font-family="sans-serif" font-size="14" lengthAdjust="spacing" textLength="93" x="636" y="108.0234">0xac8c..821b</text><rect fill="#E2E2F0" height="46.9766" rx="2.5" ry="2.5" style="stroke:#181818;stroke-width:0.5;" width="107" x="629" y="2850.9004"/><text fill="#000000" font-family="sans-serif" font-size="14" font-style="italic" lengthAdjust="spacing" textLength="84" x="640.5" y="2871.4355">&#171;ARMProxy&#187;</text><text fill="#000000" font-family="sans-serif" font-size="14" lengthAdjust="spacing" textLength="93" x="636" y="2887.9238">0xac8c..821b</text><rect fill="#E2E2F0" height="46.9766" rx="2.5" ry="2.5" style="stroke:#181818;stroke-width:0.5;" width="106" x="859.5" y="71"/><text fill="#000000" font-family="sans-serif" font-size="14" font-style="italic" lengthAdjust="spacing" textLength="45" x="890" y="91.5352">&#171;ARM&#187;</text><text fill="#000000" font-family="sans-serif" font-size="14" lengthAdjust="spacing" textLength="92" x="866.5" y="108.0234">0x0ea0..158f</text><rect fill="#E2E2F0" height="46.9766" rx="2.5" ry="2.5" style="stroke:#181818;stroke-width:0.5;" width="106" x="859.5" y="2850.9004"/><text fill="#000000" font-family="sans-serif" font-size="14" font-style="italic" lengthAdjust="spacing" textLength="45" x="890" y="2871.4355">&#171;ARM&#187;</text><text fill="#000000" font-family="sans-serif" font-size="14" lengthAdjust="spacing" textLength="92" x="866.5" y="2887.9238">0x0ea0..158f</text><rect fill="#E2E2F0" height="46.9766" rx="2.5" ry="2.5" style="stroke:#181818;stroke-width:0.5;" width="118" x="975.5" y="71"/><text fill="#000000" font-family="sans-serif" font-size="14" font-style="italic" lengthAdjust="spacing" textLength="104" x="982.5" y="91.5352">&#171;CommitStore&#187;</text><text fill="#000000" font-family="sans-serif" font-size="14" lengthAdjust="spacing" textLength="97" x="986" y="108.0234">0xb440..5e9d</text><rect fill="#E2E2F0" height="46.9766" rx="2.5" ry="2.5" style="stroke:#181818;stroke-width:0.5;" width="118" x="975.5" y="2850.9004"/><text fill="#000000" font-family="sans-serif" font-size="14" font-style="italic" lengthAdjust="spacing" textLength="104" x="982.5" y="2871.4355">&#171;CommitStore&#187;</text><text fill="#000000" font-family="sans-serif" font-size="14" lengthAdjust="spacing" textLength="97" x="986" y="2887.9238">0xb440..5e9d</text><rect fill="#E2E2F0" height="46.9766" rx="2.5" ry="2.5" style="stroke:#181818;stroke-width:0.5;" width="166" x="1103.5" y="71"/><text fill="#000000" font-family="sans-serif" font-size="14" font-style="italic" lengthAdjust="spacing" textLength="152" x="1110.5" y="91.5352">&#171;CrossChainSwapper&#187;</text><text fill="#000000" font-family="sans-serif" font-size="14" lengthAdjust="spacing" textLength="94" x="1139.5" y="108.0234">0xa882..ca74</text><rect fill="#E2E2F0" height="46.9766" rx="2.5" ry="2.5" style="stroke:#181818;stroke-width:0.5;" width="166" x="1103.5" y="2850.9004"/><text fill="#000000" font-family="sans-serif" font-size="14" font-style="italic" lengthAdjust="spacing" textLength="152" x="1110.5" y="2871.4355">&#171;CrossChainSwapper&#187;</text><text fill="#000000" font-family="sans-serif" font-size="14" lengthAdjust="spacing" textLength="94" x="1139.5" y="2887.9238">0xa882..ca74</text><rect fill="#E2E2F0" height="46.9766" rx="2.5" ry="2.5" style="stroke:#181818;stroke-width:0.5;" width="112" x="1503.5" y="71"/><text fill="#000000" font-family="sans-serif" font-size="14" font-style="italic" lengthAdjust="spacing" textLength="60" x="1529.5" y="91.5352">&#171;Router&#187;</text><text fill="#000000" font-family="sans-serif" font-size="14" lengthAdjust="spacing" textLength="98" x="1510.5" y="108.0234">0x5544..82d8</text><rect fill="#E2E2F0" height="46.9766" rx="2.5" ry="2.5" style="stroke:#181818;stroke-width:0.5;" width="112" x="1503.5" y="2850.9004"/><text fill="#000000" font-family="sans-serif" font-size="14" font-style="italic" lengthAdjust="spacing" textLength="60" x="1529.5" y="2871.4355">&#171;Router&#187;</text><text fill="#000000" font-family="sans-serif" font-size="14" lengthAdjust="spacing" textLength="98" x="1510.5" y="2887.9238">0x5544..82d8</text><rect fill="#E2E2F0" height="46.9766" rx="2.5" ry="2.5" style="stroke:#181818;stroke-width:0.5;" width="108" x="1689" y="71"/><text fill="#000000" font-family="sans-serif" font-size="14" font-style="italic" lengthAdjust="spacing" textLength="89" x="1698.5" y="91.5352">&#171;SelectorLib&#187;</text><text fill="#000000" font-family="sans-serif" font-size="14" lengthAdjust="spacing" textLength="94" x="1696" y="108.0234">0x6725..f587</text><rect fill="#E2E2F0" height="46.9766" rx="2.5" ry="2.5" style="stroke:#181818;stroke-width:0.5;" width="108" x="1689" y="2850.9004"/><text fill="#000000" font-family="sans-serif" font-size="14" font-style="italic" lengthAdjust="spacing" textLength="89" x="1698.5" y="2871.4355">&#171;SelectorLib&#187;</text><text fill="#000000" font-family="sans-serif" font-size="14" lengthAdjust="spacing" textLength="94" x="1696" y="2887.9238">0x6725..f587</text><rect fill="#FFFFFF" height="2072.4336" style="stroke:#181818;stroke-width:1.0;" width="10" x="309.5" y="568.3613"/><rect fill="#FFFFFF" height="1059.2168" style="stroke:#181818;stroke-width:1.0;" width="10" x="314.5" y="1509.957"/><rect fill="#FFFFFF" height="103.2422" style="stroke:#181818;stroke-width:1.0;" width="10" x="677.5" y="612.9824"/><rect fill="#FFFFFF" height="149.1738" style="stroke:#181818;stroke-width:1.0;" width="10" x="677.5" y="963.2617"/><rect fill="#FFFFFF" height="103.2422" style="stroke:#181818;stroke-width:1.0;" width="10" x="677.5" y="2009.7207"/><rect fill="#FFFFFF" height="29.3105" style="stroke:#181818;stroke-width:1.0;" width="10" x="907.5" y="657.6035"/><rect fill="#FFFFFF" height="29.3105" style="stroke:#181818;stroke-width:1.0;" width="10" x="907.5" y="1053.8145"/><rect fill="#FFFFFF" height="29.3105" style="stroke:#181818;stroke-width:1.0;" width="10" x="907.5" y="2054.3418"/><rect fill="#FFFFFF" height="319.6582" style="stroke:#181818;stroke-width:1.0;" width="10" x="1029.5" y="872.709"/><rect fill="#FFFFFF" height="29.3105" style="stroke:#181818;stroke-width:1.0;" width="10" x="1181.5" y="1574.8887"/><rect fill="#FFFFFF" height="29.3105" style="stroke:#181818;stroke-width:1.0;" width="10" x="1181.5" y="1664.1309"/><rect fill="#FFFFFF" height="29.3105" style="stroke:#181818;stroke-width:1.0;" width="10" x="1181.5" y="1753.373"/><rect fill="#FFFFFF" height="103.2422" style="stroke:#181818;stroke-width:1.0;" width="10" x="1181.5" y="2300.0684"/><rect fill="#FFFFFF" height="533.4531" style="stroke:#181818;stroke-width:1.0;" width="10" x="1554.5" y="1965.0996"/><rect fill="#809ECB" height="29.3105" style="stroke:#181818;stroke-width:1.0;" width="10" x="1738" y="2360"/><path d="M5,133.9766 L5,219.9766 L157,219.9766 L157,143.9766 L147,133.9766 L5,133.9766 " fill="#FEFFDD" style="stroke:#181818;stroke-width:0.5;"/><path d="M147,133.9766 L147,143.9766 L157,143.9766 L147,133.9766 " fill="#FEFFDD" style="stroke:#181818;stroke-width:0.5;"/><text fill="#000000" font-family="sans-serif" font-size="13" lengthAdjust="spacing" textLength="92" x="11" y="151.5449">Nonce: 65,299</text><text fill="#000000" font-family="sans-serif" font-size="13" lengthAdjust="spacing" textLength="127" x="11" y="166.8555">Gas Price: 30.0 Gwei</text><text fill="#000000" font-family="sans-serif" font-size="13" lengthAdjust="spacing" textLength="131" x="11" y="182.166">Gas Limit: 6,000,000</text><text fill="#000000" font-family="sans-serif" font-size="13" lengthAdjust="spacing" textLength="118" x="11" y="197.4766">Gas Used: 168,031</text><text fill="#000000" font-family="sans-serif" font-size="13" lengthAdjust="spacing" textLength="114" x="11" y="212.7871">Tx Fee: 0.005 ETH</text><polygon fill="#181818" points="297.5,564.3613,307.5,568.3613,297.5,572.3613,301.5,568.3613" style="stroke:#181818;stroke-width:1.0;"/><line style="stroke:#181818;stroke-width:1.0;" x1="80.5" x2="303.5" y1="568.3613" y2="568.3613"/><text fill="#000000" font-family="sans-serif" font-size="13" lengthAdjust="spacing" textLength="57" x="87.5" y="242.0977">transmit(</text><text fill="#000000" font-family="sans-serif" font-size="13" lengthAdjust="spacing" textLength="100" x="95.5" y="257.4082">reportContext: [</text><text fill="#000000" font-family="sans-serif" font-size="13" lengthAdjust="spacing" textLength="167" x="103.5" y="272.7188">0: 0x0001167a..f1378a09,</text><text fill="#000000" font-family="sans-serif" font-size="13" lengthAdjust="spacing" textLength="169" x="103.5" y="288.0293">1: 0x00000000..00fb9d03,</text><text fill="#000000" font-family="sans-serif" font-size="13" lengthAdjust="spacing" textLength="167" x="103.5" y="303.3398">2: 0xfc593e94..db8fa8b1],</text><text fill="#000000" font-family="sans-serif" font-size="13" lengthAdjust="spacing" textLength="202" x="95.5" y="318.6504">report: 0x00000000..00000000,</text><text fill="#000000" font-family="sans-serif" font-size="13" lengthAdjust="spacing" textLength="24" x="95.5" y="333.9609">rs: [</text><text fill="#000000" font-family="sans-serif" font-size="13" lengthAdjust="spacing" textLength="161" x="103.5" y="349.2715">0: 0x7f4cf904..1eaeed06,</text><text fill="#000000" font-family="sans-serif" font-size="13" lengthAdjust="spacing" textLength="162" x="103.5" y="364.582">1: 0xe0f3ce5c..0c794ac9,</text><text fill="#000000" font-family="sans-serif" font-size="13" lengthAdjust="spacing" textLength="164" x="103.5" y="379.8926">2: 0xfcdc0e0d..3e53ba18,</text><text fill="#000000" font-family="sans-serif" font-size="13" lengthAdjust="spacing" textLength="161" x="103.5" y="395.2031">3: 0x187eac5c..a1f5f766,</text><text fill="#000000" font-family="sans-serif" font-size="13" lengthAdjust="spacing" textLength="165" x="103.5" y="410.5137">4: 0xaf69ddc1..d7c40dad,</text><text fill="#000000" font-family="sans-serif" font-size="13" lengthAdjust="spacing" textLength="163" x="103.5" y="425.8242">5: 0xa0efb8d3..f03ef45e],</text><text fill="#000000" font-family="sans-serif" font-size="13" lengthAdjust="spacing" textLength="26" x="95.5" y="441.1348">ss: [</text><text fill="#000000" font-family="sans-serif" font-size="13" lengthAdjust="spacing" textLength="162" x="103.5" y="456.4453">0: 0x57ea0fda..c2177bf0,</text><text fill="#000000" font-family="sans-serif" font-size="13" lengthAdjust="spacing" textLength="168" x="103.5" y="471.7559">1: 0x4ced6c0a..2b697459,</text><text fill="#000000" font-family="sans-serif" font-size="13" lengthAdjust="spacing" textLength="165" x="103.5" y="487.0664">2: 0x54b6c665..e8088ccf,</text><text fill="#000000" font-family="sans-serif" font-size="13" lengthAdjust="spacing" textLength="164" x="103.5" y="502.377">3: 0x46f729f6..58ad385a,</text><text fill="#000000" font-family="sans-serif" font-size="13" lengthAdjust="spacing" textLength="168" x="103.5" y="517.6875">4: 0x4d94f295..5e146720,</text><text fill="#000000" font-family="sans-serif" font-size="13" lengthAdjust="spacing" textLength="171" x="103.5" y="532.998">5: 0x7d14d455..70ecd90f],</text><text fill="#000000" font-family="sans-serif" font-size="13" lengthAdjust="spacing" textLength="156" x="95.5" y="548.3086">0x00000000..00000000)</text><text fill="#000000" font-family="sans-serif" font-size="13" lengthAdjust="spacing" textLength="78" x="87.5" y="563.6191">168,031 gas</text><polygon fill="#181818" points="665.5,608.9824,675.5,612.9824,665.5,616.9824,669.5,612.9824" style="stroke:#181818;stroke-width:1.0;"/><line style="stroke:#181818;stroke-width:1.0;stroke-dasharray:2.0,2.0;" x1="319.5" x2="671.5" y1="612.9824" y2="612.9824"/><text fill="#000000" font-family="sans-serif" font-size="13" lengthAdjust="spacing" textLength="63" x="326.5" y="592.9297">isCursed()</text><text fill="#000000" font-family="sans-serif" font-size="13" lengthAdjust="spacing" textLength="62" x="326.5" y="608.2402">7,456 gas</text><polygon fill="#181818" points="895.5,653.6035,905.5,657.6035,895.5,661.6035,899.5,657.6035" style="stroke:#181818;stroke-width:1.0;"/><line style="stroke:#181818;stroke-width:1.0;" x1="687.5" x2="901.5" y1="657.6035" y2="657.6035"/><text fill="#000000" font-family="sans-serif" font-size="13" lengthAdjust="spacing" textLength="63" x="694.5" y="637.5508">isCursed()</text><text fill="#000000" font-family="sans-serif" font-size="13" lengthAdjust="spacing" textLength="62" x="694.5" y="652.8613">2,394 gas</text><polygon fill="#181818" points="698.5,682.9141,688.5,686.9141,698.5,690.9141,694.5,686.9141" style="stroke:#181818;stroke-width:1.0;"/><line style="stroke:#181818;stroke-width:1.0;stroke-dasharray:2.0,2.0;" x1="692.5" x2="911.5" y1="686.9141" y2="686.9141"/><text fill="#000000" font-family="sans-serif" font-size="13" lengthAdjust="spacing" textLength="30" x="704.5" y="682.1719">false</text><polygon fill="#181818" points="330.5,712.2246,320.5,716.2246,330.5,720.2246,326.5,716.2246" style="stroke:#181818;stroke-width:1.0;"/><line style="stroke:#181818;stroke-width:1.0;stroke-dasharray:2.0,2.0;" x1="324.5" x2="681.5" y1="716.2246" y2="716.2246"/><text fill="#000000" font-family="sans-serif" font-size="13" lengthAdjust="spacing" textLength="30" x="336.5" y="711.4824">false</text><path d="M687,729.2246 L687,769.2246 L770,769.2246 L770,739.2246 L760,729.2246 L687,729.2246 " fill="#FEFFDD" style="stroke:#181818;stroke-width:0.5;"/><path d="M760,729.2246 L760,739.2246 L770,739.2246 L760,729.2246 " fill="#FEFFDD" style="stroke:#181818;stroke-width:0.5;"/><text fill="#000000" font-family="sans-serif" font-size="13" lengthAdjust="spacing" textLength="4" x="693" y="746.793">&#160;</text><text fill="#000000" font-family="sans-serif" font-size="13" lengthAdjust="spacing" textLength="62" x="693" y="762.1035">5,062 gas</text><polygon fill="#181818" points="1017.5,868.709,1027.5,872.709,1017.5,876.709,1021.5,872.709" style="stroke:#181818;stroke-width:1.0;"/><line style="stroke:#181818;stroke-width:1.0;" x1="319.5" x2="1023.5" y1="872.709" y2="872.709"/><text fill="#000000" font-family="sans-serif" font-size="13" lengthAdjust="spacing" textLength="39" x="326.5" y="791.4141">verify(</text><text fill="#000000" font-family="sans-serif" font-size="13" lengthAdjust="spacing" textLength="99" x="334.5" y="806.7246">hashedLeaves: [</text><text fill="#000000" font-family="sans-serif" font-size="13" lengthAdjust="spacing" textLength="167" x="342.5" y="822.0352">0: 0xf8f7d209..2a9c5c4b],</text><text fill="#000000" font-family="sans-serif" font-size="13" lengthAdjust="spacing" textLength="57" x="334.5" y="837.3457">proofs: ],</text><text fill="#000000" font-family="sans-serif" font-size="13" lengthAdjust="spacing" textLength="103" x="334.5" y="852.6563">proofFlagBits: 0)</text><text fill="#000000" font-family="sans-serif" font-size="13" lengthAdjust="spacing" textLength="62" x="326.5" y="867.9668">9,855 gas</text><polygon fill="#181818" points="698.5,959.2617,688.5,963.2617,698.5,967.2617,694.5,963.2617" style="stroke:#181818;stroke-width:1.0;"/><line style="stroke:#181818;stroke-width:1.0;stroke-dasharray:2.0,2.0;" x1="692.5" x2="1028.5" y1="963.2617" y2="963.2617"/><text fill="#000000" font-family="sans-serif" font-size="13" lengthAdjust="spacing" textLength="62" x="704.5" y="897.2773">isBlessed(</text><text fill="#000000" font-family="sans-serif" font-size="13" lengthAdjust="spacing" textLength="84" x="712.5" y="912.5879">taggedRoot: [</text><text fill="#000000" font-family="sans-serif" font-size="13" lengthAdjust="spacing" textLength="181" x="720.5" y="927.8984">commitStore: 0xb440..5e9D,</text><text fill="#000000" font-family="sans-serif" font-size="13" lengthAdjust="spacing" textLength="185" x="720.5" y="943.209">root: 0xf8f7d209..2a9c5c4b])</text><text fill="#000000" font-family="sans-serif" font-size="13" lengthAdjust="spacing" textLength="62" x="704.5" y="958.5195">3,614 gas</text><polygon fill="#181818" points="895.5,1049.8145,905.5,1053.8145,895.5,1057.8145,899.5,1053.8145" style="stroke:#181818;stroke-width:1.0;"/><line style="stroke:#181818;stroke-width:1.0;" x1="687.5" x2="901.5" y1="1053.8145" y2="1053.8145"/><text fill="#000000" font-family="sans-serif" font-size="13" lengthAdjust="spacing" textLength="62" x="694.5" y="987.8301">isBlessed(</text><text fill="#000000" font-family="sans-serif" font-size="13" lengthAdjust="spacing" textLength="84" x="702.5" y="1003.1406">taggedRoot: [</text><text fill="#000000" font-family="sans-serif" font-size="13" lengthAdjust="spacing" textLength="181" x="710.5" y="1018.4512">commitStore: 0xb440..5e9D,</text><text fill="#000000" font-family="sans-serif" font-size="13" lengthAdjust="spacing" textLength="185" x="710.5" y="1033.7617">root: 0xf8f7d209..2a9c5c4b])</text><text fill="#000000" font-family="sans-serif" font-size="13" lengthAdjust="spacing" textLength="62" x="694.5" y="1049.0723">3,046 gas</text><polygon fill="#181818" points="698.5,1079.125,688.5,1083.125,698.5,1087.125,694.5,1083.125" style="stroke:#181818;stroke-width:1.0;"/><line style="stroke:#181818;stroke-width:1.0;stroke-dasharray:2.0,2.0;" x1="692.5" x2="911.5" y1="1083.125" y2="1083.125"/><text fill="#000000" font-family="sans-serif" font-size="13" lengthAdjust="spacing" textLength="25" x="704.5" y="1078.3828">true</text><polygon fill="#181818" points="1017.5,1108.4355,1027.5,1112.4355,1017.5,1116.4355,1021.5,1112.4355" style="stroke:#181818;stroke-width:1.0;"/><line style="stroke:#181818;stroke-width:1.0;stroke-dasharray:2.0,2.0;" x1="682.5" x2="1023.5" y1="1112.4355" y2="1112.4355"/><text fill="#000000" font-family="sans-serif" font-size="13" lengthAdjust="spacing" textLength="25" x="689.5" y="1107.6934">true</text><path d="M687,1125.4355 L687,1165.4355 L758,1165.4355 L758,1135.4355 L748,1125.4355 L687,1125.4355 " fill="#FEFFDD" style="stroke:#181818;stroke-width:0.5;"/><path d="M748,1125.4355 L748,1135.4355 L758,1135.4355 L748,1125.4355 " fill="#FEFFDD" style="stroke:#181818;stroke-width:0.5;"/><text fill="#000000" font-family="sans-serif" font-size="13" lengthAdjust="spacing" textLength="4" x="693" y="1143.0039">&#160;</text><text fill="#000000" font-family="sans-serif" font-size="13" lengthAdjust="spacing" textLength="50" x="693" y="1158.3145">568 gas</text><polygon fill="#181818" points="330.5,1188.3672,320.5,1192.3672,330.5,1196.3672,326.5,1192.3672" style="stroke:#181818;stroke-width:1.0;"/><line style="stroke:#181818;stroke-width:1.0;stroke-dasharray:2.0,2.0;" x1="324.5" x2="1033.5" y1="1192.3672" y2="1192.3672"/><text fill="#000000" font-family="sans-serif" font-size="13" lengthAdjust="spacing" textLength="167" x="336.5" y="1187.625">timestamp: 1,700,347,900</text><path d="M1039,1205.3672 L1039,1245.3672 L1122,1245.3672 L1122,1215.3672 L1112,1205.3672 L1039,1205.3672 " fill="#FEFFDD" style="stroke:#181818;stroke-width:0.5;"/><path d="M1112,1205.3672 L1112,1215.3672 L1122,1215.3672 L1112,1205.3672 " fill="#FEFFDD" style="stroke:#181818;stroke-width:0.5;"/><text fill="#000000" font-family="sans-serif" font-size="13" lengthAdjust="spacing" textLength="4" x="1045" y="1222.9355">&#160;</text><text fill="#000000" font-family="sans-serif" font-size="13" lengthAdjust="spacing" textLength="62" x="1045" y="1238.2461">6,241 gas</text><line style="stroke:#181818;stroke-width:1.0;" x1="319.5" x2="366.5" y1="1496.957" y2="1496.957"/><line style="stroke:#181818;stroke-width:1.0;" x1="366.5" x2="366.5" y1="1496.957" y2="1509.957"/><line style="stroke:#181818;stroke-width:1.0;" x1="325.5" x2="366.5" y1="1509.957" y2="1509.957"/><polygon fill="#181818" points="335.5,1505.957,325.5,1509.957,335.5,1513.957,331.5,1509.957" style="stroke:#181818;stroke-width:1.0;"/><text fill="#000000" font-family="sans-serif" font-size="13" lengthAdjust="spacing" textLength="145" x="331.5" y="1262.5566">executeSingleMessage(</text><text fill="#000000" font-family="sans-serif" font-size="13" lengthAdjust="spacing" textLength="67" x="339.5" y="1277.8672">message: [</text><text fill="#000000" font-family="sans-serif" font-size="13" lengthAdjust="spacing" textLength="328" x="347.5" y="1293.1777">sourceChainSelector: 16,,015,286,601,757,825,753,</text><text fill="#000000" font-family="sans-serif" font-size="13" lengthAdjust="spacing" textLength="157" x="347.5" y="1308.4883">sequenceNumber: 9,427,</text><text fill="#000000" font-family="sans-serif" font-size="13" lengthAdjust="spacing" textLength="284" x="347.5" y="1323.7988">feeTokenAmount: 170,637,169,230,769,230,</text><text fill="#000000" font-family="sans-serif" font-size="13" lengthAdjust="spacing" textLength="141" x="347.5" y="1339.1094">sender: 0x6340..5a23,</text><text fill="#000000" font-family="sans-serif" font-size="13" lengthAdjust="spacing" textLength="58" x="347.5" y="1354.4199">nonce: 1,</text><text fill="#000000" font-family="sans-serif" font-size="13" lengthAdjust="spacing" textLength="130" x="347.5" y="1369.7305">gasLimit: 1,000,000,</text><text fill="#000000" font-family="sans-serif" font-size="13" lengthAdjust="spacing" textLength="75" x="347.5" y="1385.041">strict: false,</text><text fill="#000000" font-family="sans-serif" font-size="13" lengthAdjust="spacing" textLength="150" x="347.5" y="1400.3516">receiver: 0xA882..cA74,</text><text fill="#000000" font-family="sans-serif" font-size="13" lengthAdjust="spacing" textLength="186" x="347.5" y="1415.6621">data: 0x25df32cc..00000000,</text><text fill="#000000" font-family="sans-serif" font-size="13" lengthAdjust="spacing" textLength="109" x="347.5" y="1430.9727">tokenAmounts: ],</text><text fill="#000000" font-family="sans-serif" font-size="13" lengthAdjust="spacing" textLength="158" x="347.5" y="1446.2832">feeToken: 0x7798..4789,</text><text fill="#000000" font-family="sans-serif" font-size="13" lengthAdjust="spacing" textLength="226" x="347.5" y="1461.5938">messageId: 0xf8f7d209..2a9c5c4b],</text><text fill="#000000" font-family="sans-serif" font-size="13" lengthAdjust="spacing" textLength="136" x="339.5" y="1476.9043">offchainTokenData: ])</text><text fill="#000000" font-family="sans-serif" font-size="13" lengthAdjust="spacing" textLength="70" x="331.5" y="1492.2148">52,870 gas</text><polygon fill="#181818" points="1169.5,1570.8887,1179.5,1574.8887,1169.5,1578.8887,1173.5,1574.8887" style="stroke:#181818;stroke-width:1.0;"/><line style="stroke:#181818;stroke-width:1.0;" x1="324.5" x2="1175.5" y1="1574.8887" y2="1574.8887"/><text fill="#000000" font-family="sans-serif" font-size="13" lengthAdjust="spacing" textLength="115" x="331.5" y="1539.5254">supportsInterface(</text><text fill="#000000" font-family="sans-serif" font-size="13" lengthAdjust="spacing" textLength="151" x="339.5" y="1554.8359">interfaceId: 0x01ffc9a7)</text><text fill="#000000" font-family="sans-serif" font-size="13" lengthAdjust="spacing" textLength="50" x="331.5" y="1570.1465">708 gas</text><polygon fill="#181818" points="335.5,1600.1992,325.5,1604.1992,335.5,1608.1992,331.5,1604.1992" style="stroke:#181818;stroke-width:1.0;"/><line style="stroke:#181818;stroke-width:1.0;stroke-dasharray:2.0,2.0;" x1="329.5" x2="1185.5" y1="1604.1992" y2="1604.1992"/><text fill="#000000" font-family="sans-serif" font-size="13" lengthAdjust="spacing" textLength="25" x="341.5" y="1599.457">true</text><polygon fill="#181818" points="1169.5,1660.1309,1179.5,1664.1309,1169.5,1668.1309,1173.5,1664.1309" style="stroke:#181818;stroke-width:1.0;"/><line style="stroke:#181818;stroke-width:1.0;" x1="324.5" x2="1175.5" y1="1664.1309" y2="1664.1309"/><text fill="#000000" font-family="sans-serif" font-size="13" lengthAdjust="spacing" textLength="115" x="331.5" y="1628.7676">supportsInterface(</text><text fill="#000000" font-family="sans-serif" font-size="13" lengthAdjust="spacing" textLength="135" x="339.5" y="1644.0781">interfaceId: 0xffffffff)</text><text fill="#000000" font-family="sans-serif" font-size="13" lengthAdjust="spacing" textLength="50" x="331.5" y="1659.3887">708 gas</text><polygon fill="#181818" points="335.5,1689.4414,325.5,1693.4414,335.5,1697.4414,331.5,1693.4414" style="stroke:#181818;stroke-width:1.0;"/><line style="stroke:#181818;stroke-width:1.0;stroke-dasharray:2.0,2.0;" x1="329.5" x2="1185.5" y1="1693.4414" y2="1693.4414"/><text fill="#000000" font-family="sans-serif" font-size="13" lengthAdjust="spacing" textLength="30" x="341.5" y="1688.6992">false</text><polygon fill="#181818" points="1169.5,1749.373,1179.5,1753.373,1169.5,1757.373,1173.5,1753.373" style="stroke:#181818;stroke-width:1.0;"/><line style="stroke:#181818;stroke-width:1.0;" x1="324.5" x2="1175.5" y1="1753.373" y2="1753.373"/><text fill="#000000" font-family="sans-serif" font-size="13" lengthAdjust="spacing" textLength="115" x="331.5" y="1718.0098">supportsInterface(</text><text fill="#000000" font-family="sans-serif" font-size="13" lengthAdjust="spacing" textLength="153" x="339.5" y="1733.3203">interfaceId: 0x85572ffb)</text><text fill="#000000" font-family="sans-serif" font-size="13" lengthAdjust="spacing" textLength="50" x="331.5" y="1748.6309">679 gas</text><polygon fill="#181818" points="335.5,1778.6836,325.5,1782.6836,335.5,1786.6836,331.5,1782.6836" style="stroke:#181818;stroke-width:1.0;"/><line style="stroke:#181818;stroke-width:1.0;stroke-dasharray:2.0,2.0;" x1="329.5" x2="1185.5" y1="1782.6836" y2="1782.6836"/><text fill="#000000" font-family="sans-serif" font-size="13" lengthAdjust="spacing" textLength="25" x="341.5" y="1777.9414">true</text><polygon fill="#181818" points="1542.5,1961.0996,1552.5,1965.0996,1542.5,1969.0996,1546.5,1965.0996" style="stroke:#181818;stroke-width:1.0;"/><line style="stroke:#181818;stroke-width:1.0;" x1="324.5" x2="1548.5" y1="1965.0996" y2="1965.0996"/><text fill="#000000" font-family="sans-serif" font-size="13" lengthAdjust="spacing" textLength="91" x="331.5" y="1807.252">routeMessage(</text><text fill="#000000" font-family="sans-serif" font-size="13" lengthAdjust="spacing" textLength="67" x="339.5" y="1822.5625">message: [</text><text fill="#000000" font-family="sans-serif" font-size="13" lengthAdjust="spacing" textLength="222" x="347.5" y="1837.873">messageId: 0xf8f7d209..2a9c5c4b,</text><text fill="#000000" font-family="sans-serif" font-size="13" lengthAdjust="spacing" textLength="328" x="347.5" y="1853.1836">sourceChainSelector: 16,,015,286,601,757,825,753,</text><text fill="#000000" font-family="sans-serif" font-size="13" lengthAdjust="spacing" textLength="201" x="347.5" y="1868.4941">sender: 0x00000000..7fa15a23,</text><text fill="#000000" font-family="sans-serif" font-size="13" lengthAdjust="spacing" textLength="186" x="347.5" y="1883.8047">data: 0x25df32cc..00000000,</text><text fill="#000000" font-family="sans-serif" font-size="13" lengthAdjust="spacing" textLength="143" x="347.5" y="1899.1152">destTokenAmounts: ]],</text><text fill="#000000" font-family="sans-serif" font-size="13" lengthAdjust="spacing" textLength="187" x="339.5" y="1914.4258">gasForCallExactCheck: 5,000,</text><text fill="#000000" font-family="sans-serif" font-size="13" lengthAdjust="spacing" textLength="130" x="339.5" y="1929.7363">gasLimit: 1,000,000,</text><text fill="#000000" font-family="sans-serif" font-size="13" lengthAdjust="spacing" textLength="150" x="339.5" y="1945.0469">receiver: 0xA882..cA74)</text><text fill="#000000" font-family="sans-serif" font-size="13" lengthAdjust="spacing" textLength="70" x="331.5" y="1960.3574">36,310 gas</text><polygon fill="#181818" points="698.5,2005.7207,688.5,2009.7207,698.5,2013.7207,694.5,2009.7207" style="stroke:#181818;stroke-width:1.0;"/><line style="stroke:#181818;stroke-width:1.0;stroke-dasharray:2.0,2.0;" x1="692.5" x2="1553.5" y1="2009.7207" y2="2009.7207"/><text fill="#000000" font-family="sans-serif" font-size="13" lengthAdjust="spacing" textLength="63" x="704.5" y="1989.668">isCursed()</text><text fill="#000000" font-family="sans-serif" font-size="13" lengthAdjust="spacing" textLength="50" x="704.5" y="2004.9785">956 gas</text><polygon fill="#181818" points="895.5,2050.3418,905.5,2054.3418,895.5,2058.3418,899.5,2054.3418" style="stroke:#181818;stroke-width:1.0;"/><line style="stroke:#181818;stroke-width:1.0;" x1="687.5" x2="901.5" y1="2054.3418" y2="2054.3418"/><text fill="#000000" font-family="sans-serif" font-size="13" lengthAdjust="spacing" textLength="63" x="694.5" y="2034.2891">isCursed()</text><text fill="#000000" font-family="sans-serif" font-size="13" lengthAdjust="spacing" textLength="50" x="694.5" y="2049.5996">394 gas</text><polygon fill="#181818" points="698.5,2079.6523,688.5,2083.6523,698.5,2087.6523,694.5,2083.6523" style="stroke:#181818;stroke-width:1.0;"/><line style="stroke:#181818;stroke-width:1.0;stroke-dasharray:2.0,2.0;" x1="692.5" x2="911.5" y1="2083.6523" y2="2083.6523"/><text fill="#000000" font-family="sans-serif" font-size="13" lengthAdjust="spacing" textLength="30" x="704.5" y="2078.9102">false</text><polygon fill="#181818" points="1542.5,2108.9629,1552.5,2112.9629,1542.5,2116.9629,1546.5,2112.9629" style="stroke:#181818;stroke-width:1.0;"/><line style="stroke:#181818;stroke-width:1.0;stroke-dasharray:2.0,2.0;" x1="682.5" x2="1548.5" y1="2112.9629" y2="2112.9629"/><text fill="#000000" font-family="sans-serif" font-size="13" lengthAdjust="spacing" textLength="30" x="689.5" y="2108.2207">false</text><path d="M687,2125.9629 L687,2165.9629 L758,2165.9629 L758,2135.9629 L748,2125.9629 L687,2125.9629 " fill="#FEFFDD" style="stroke:#181818;stroke-width:0.5;"/><path d="M748,2125.9629 L748,2135.9629 L758,2135.9629 L748,2125.9629 " fill="#FEFFDD" style="stroke:#181818;stroke-width:0.5;"/><text fill="#000000" font-family="sans-serif" font-size="13" lengthAdjust="spacing" textLength="4" x="693" y="2143.5313">&#160;</text><text fill="#000000" font-family="sans-serif" font-size="13" lengthAdjust="spacing" textLength="50" x="693" y="2158.8418">562 gas</text><polygon fill="#181818" points="1202.5,2296.0684,1192.5,2300.0684,1202.5,2304.0684,1198.5,2300.0684" style="stroke:#181818;stroke-width:1.0;"/><line style="stroke:#181818;stroke-width:1.0;" x1="1196.5" x2="1553.5" y1="2300.0684" y2="2300.0684"/><text fill="#000000" font-family="sans-serif" font-size="13" lengthAdjust="spacing" textLength="77" x="1208.5" y="2188.1523">ccipReceive(</text><text fill="#000000" font-family="sans-serif" font-size="13" lengthAdjust="spacing" textLength="67" x="1216.5" y="2203.4629">message: [</text><text fill="#000000" font-family="sans-serif" font-size="13" lengthAdjust="spacing" textLength="222" x="1224.5" y="2218.7734">messageId: 0xf8f7d209..2a9c5c4b,</text><text fill="#000000" font-family="sans-serif" font-size="13" lengthAdjust="spacing" textLength="328" x="1224.5" y="2234.084">sourceChainSelector: 16,,015,286,601,757,825,753,</text><text fill="#000000" font-family="sans-serif" font-size="13" lengthAdjust="spacing" textLength="201" x="1224.5" y="2249.3945">sender: 0x00000000..7fa15a23,</text><text fill="#000000" font-family="sans-serif" font-size="13" lengthAdjust="spacing" textLength="186" x="1224.5" y="2264.7051">data: 0x25df32cc..00000000,</text><text fill="#000000" font-family="sans-serif" font-size="13" lengthAdjust="spacing" textLength="143" x="1224.5" y="2280.0156">destTokenAmounts: ]])</text><text fill="#000000" font-family="sans-serif" font-size="13" lengthAdjust="spacing" textLength="70" x="1208.5" y="2295.3262">27,415 gas</text><line style="stroke:#181818;stroke-width:1.0;" x1="1736" x2="1726" y1="2360" y2="2356"/><line style="stroke:#181818;stroke-width:1.0;" x1="1736" x2="1726" y1="2360" y2="2364"/><line style="stroke:#181818;stroke-width:1.0;" x1="1191.5" x2="1737" y1="2360" y2="2360"/><text fill="#000000" font-family="sans-serif" font-size="13" lengthAdjust="spacing" textLength="100" x="1198.5" y="2324.6367">removeSelector(</text><text fill="#000000" font-family="sans-serif" font-size="13" lengthAdjust="spacing" textLength="186" x="1206.5" y="2339.9473">data: 0x25df32cc..00000000)</text><text fill="#000000" font-family="sans-serif" font-size="13" lengthAdjust="spacing" textLength="62" x="1198.5" y="2355.2578">1,858 gas</text><line style="stroke:#181818;stroke-width:1.0;" x1="1192.5" x2="1202.5" y1="2389.3105" y2="2385.3105"/><line style="stroke:#181818;stroke-width:1.0;" x1="1192.5" x2="1202.5" y1="2389.3105" y2="2393.3105"/><line style="stroke:#181818;stroke-width:1.0;stroke-dasharray:2.0,2.0;" x1="1191.5" x2="1742" y1="2389.3105" y2="2389.3105"/><text fill="#000000" font-family="sans-serif" font-size="13" lengthAdjust="spacing" textLength="251" x="1208.5" y="2384.5684">remainingData: 0x110beb30..00000000</text><polygon fill="#181818" points="1542.5,2399.3105,1552.5,2403.3105,1542.5,2407.3105,1546.5,2403.3105" style="stroke:#181818;stroke-width:1.0;"/><line style="stroke:#181818;stroke-width:1.0;stroke-dasharray:2.0,2.0;" x1="1186.5" x2="1548.5" y1="2403.3105" y2="2403.3105"/><path d="M1191,2416.3105 L1191,2456.3105 L1282,2456.3105 L1282,2426.3105 L1272,2416.3105 L1191,2416.3105 " fill="#FEFFDD" style="stroke:#181818;stroke-width:0.5;"/><path d="M1272,2416.3105 L1272,2426.3105 L1282,2426.3105 L1272,2416.3105 " fill="#FEFFDD" style="stroke:#181818;stroke-width:0.5;"/><text fill="#000000" font-family="sans-serif" font-size="13" lengthAdjust="spacing" textLength="4" x="1197" y="2433.8789">&#160;</text><text fill="#000000" font-family="sans-serif" font-size="13" lengthAdjust="spacing" textLength="70" x="1197" y="2449.1895">25,557 gas</text><polygon fill="#181818" points="335.5,2494.5527,325.5,2498.5527,335.5,2502.5527,331.5,2498.5527" style="stroke:#181818;stroke-width:1.0;"/><line style="stroke:#181818;stroke-width:1.0;stroke-dasharray:2.0,2.0;" x1="329.5" x2="1558.5" y1="2498.5527" y2="2498.5527"/><text fill="#000000" font-family="sans-serif" font-size="13" lengthAdjust="spacing" textLength="87" x="341.5" y="2478.5">success: true,</text><text fill="#000000" font-family="sans-serif" font-size="13" lengthAdjust="spacing" textLength="70" x="341.5" y="2493.8105">retData: 0x</text><path d="M1564,2511.5527 L1564,2551.5527 L1647,2551.5527 L1647,2521.5527 L1637,2511.5527 L1564,2511.5527 " fill="#FEFFDD" style="stroke:#181818;stroke-width:0.5;"/><path d="M1637,2511.5527 L1637,2521.5527 L1647,2521.5527 L1637,2511.5527 " fill="#FEFFDD" style="stroke:#181818;stroke-width:0.5;"/><text fill="#000000" font-family="sans-serif" font-size="13" lengthAdjust="spacing" textLength="4" x="1570" y="2529.1211">&#160;</text><text fill="#000000" font-family="sans-serif" font-size="13" lengthAdjust="spacing" textLength="62" x="1570" y="2544.4316">7,939 gas</text><line style="stroke:#181818;stroke-width:1.0;stroke-dasharray:2.0,2.0;" x1="324.5" x2="366.5" y1="2568.1738" y2="2568.1738"/><line style="stroke:#181818;stroke-width:1.0;stroke-dasharray:2.0,2.0;" x1="366.5" x2="366.5" y1="2568.1738" y2="2581.1738"/><line style="stroke:#181818;stroke-width:1.0;stroke-dasharray:2.0,2.0;" x1="319.5" x2="366.5" y1="2581.1738" y2="2581.1738"/><polygon fill="#181818" points="329.5,2577.1738,319.5,2581.1738,329.5,2585.1738,325.5,2581.1738" style="stroke:#181818;stroke-width:1.0;"/><path d="M324,2589.1738 L324,2629.1738 L415,2629.1738 L415,2599.1738 L405,2589.1738 L324,2589.1738 " fill="#FEFFDD" style="stroke:#181818;stroke-width:0.5;"/><path d="M405,2589.1738 L405,2599.1738 L415,2599.1738 L405,2589.1738 " fill="#FEFFDD" style="stroke:#181818;stroke-width:0.5;"/><text fill="#000000" font-family="sans-serif" font-size="13" lengthAdjust="spacing" textLength="4" x="330" y="2606.7422">&#160;</text><text fill="#000000" font-family="sans-serif" font-size="13" lengthAdjust="spacing" textLength="70" x="330" y="2622.0527">14,465 gas</text><polygon fill="#181818" points="91.5,2636.7949,81.5,2640.7949,91.5,2644.7949,87.5,2640.7949" style="stroke:#181818;stroke-width:1.0;"/><line style="stroke:#181818;stroke-width:1.0;stroke-dasharray:2.0,2.0;" x1="85.5" x2="313.5" y1="2640.7949" y2="2640.7949"/><path d="M319,2653.7949 L319,2693.7949 L410,2693.7949 L410,2663.7949 L400,2653.7949 L319,2653.7949 " fill="#FEFFDD" style="stroke:#181818;stroke-width:0.5;"/><path d="M400,2653.7949 L400,2663.7949 L410,2663.7949 L400,2653.7949 " fill="#FEFFDD" style="stroke:#181818;stroke-width:0.5;"/><text fill="#000000" font-family="sans-serif" font-size="13" lengthAdjust="spacing" textLength="4" x="325" y="2671.3633">&#160;</text><text fill="#000000" font-family="sans-serif" font-size="13" lengthAdjust="spacing" textLength="70" x="325" y="2686.6738">97,850 gas</text><path d="M180,2704.416 L180,2836.416 L449,2836.416 L449,2714.416 L439,2704.416 L180,2704.416 " fill="#00FFFF" style="stroke:#181818;stroke-width:0.5;"/><path d="M439,2704.416 L439,2714.416 L449,2714.416 L439,2704.416 " fill="#00FFFF" style="stroke:#181818;stroke-width:0.5;"/><text fill="#000000" font-family="sans-serif" font-size="13" lengthAdjust="spacing" textLength="152" x="186" y="2721.9844">ExecutionStateChanged:</text><text fill="#000000" font-family="sans-serif" font-size="13" lengthAdjust="spacing" textLength="157" x="194" y="2737.2949">sequenceNumber: 9,427,</text><text fill="#000000" font-family="sans-serif" font-size="13" lengthAdjust="spacing" textLength="222" x="194" y="2752.6055">messageId: 0xf8f7d209..2a9c5c4b,</text><text fill="#000000" font-family="sans-serif" font-size="13" lengthAdjust="spacing" textLength="51" x="194" y="2767.916">state: 2,</text><text fill="#000000" font-family="sans-serif" font-size="13" lengthAdjust="spacing" textLength="91" x="194" y="2783.2266">returnData: 0x</text><text fill="#000000" font-family="sans-serif" font-size="13" lengthAdjust="spacing" textLength="80" x="186" y="2798.5371">Transmitted:</text><text fill="#000000" font-family="sans-serif" font-size="13" lengthAdjust="spacing" textLength="240" x="194" y="2813.8477">configDigest: 0x0001167a..f1378a09,</text><text fill="#000000" font-family="sans-serif" font-size="13" lengthAdjust="spacing" textLength="90" x="194" y="2829.1582">epoch: 64,413</text><path d="M1068,2704.416 L1068,2759.416 L1305,2759.416 L1305,2714.416 L1295,2704.416 L1068,2704.416 " fill="#00FFFF" style="stroke:#181818;stroke-width:0.5;"/><path d="M1295,2704.416 L1295,2714.416 L1305,2714.416 L1295,2704.416 " fill="#00FFFF" style="stroke:#181818;stroke-width:0.5;"/><text fill="#000000" font-family="sans-serif" font-size="13" lengthAdjust="spacing" textLength="139" x="1074" y="2721.9844">ReceiverCCIPMessage:</text><text fill="#000000" font-family="sans-serif" font-size="13" lengthAdjust="spacing" textLength="137" x="1082" y="2737.2949">selector: 0x25df32cc,</text><text fill="#000000" font-family="sans-serif" font-size="13" lengthAdjust="spacing" textLength="208" x="1082" y="2752.6055">payload: 0x110beb30..00000000</text><path d="M1381,2704.416 L1381,2790.416 L1738,2790.416 L1738,2714.416 L1728,2704.416 L1381,2704.416 " fill="#00FFFF" style="stroke:#181818;stroke-width:0.5;"/><path d="M1728,2704.416 L1728,2714.416 L1738,2714.416 L1728,2704.416 " fill="#00FFFF" style="stroke:#181818;stroke-width:0.5;"/><text fill="#000000" font-family="sans-serif" font-size="13" lengthAdjust="spacing" textLength="115" x="1387" y="2721.9844">MessageExecuted:</text><text fill="#000000" font-family="sans-serif" font-size="13" lengthAdjust="spacing" textLength="222" x="1395" y="2737.2949">messageId: 0xf8f7d209..2a9c5c4b,</text><text fill="#000000" font-family="sans-serif" font-size="13" lengthAdjust="spacing" textLength="328" x="1395" y="2752.6055">sourceChainSelector: 16,,015,286,601,757,825,753,</text><text fill="#000000" font-family="sans-serif" font-size="13" lengthAdjust="spacing" textLength="151" x="1395" y="2767.916">offRamp: 0x61c6..a144,</text><text fill="#000000" font-family="sans-serif" font-size="13" lengthAdjust="spacing" textLength="238" x="1395" y="2783.2266">calldataHash: 0x07b70bf0..3501692d</text><!--SRC=[tHXPRzis-5s_WcXVEa3LI8eKIQC8a3ffLw3fYYJRox87YeSZr9PSIKxJVx-FkdpaQf7jPKOCwnE_-sRQebqwX6-TIHbJogVm9nMMp117FSyppgIpIXkDAVVOsJItMhhKq1HxJPKcH0ddJ1GPlMwBgaHcqxJLAaRviZ9V41LISegp65teDaP4ea_L3QAOfeZI6QSpJD7xiyj8cxQgqGjyApFfaeJaMVO2wGO5C00eMkkwBKonrcKRy39YiYJHXB4EBu01G6_UdFvvHk7xk_VdUhK-EZgar4QQ996Kv1rb00C0bCVdPv_hwlRxNHhiD0QjkFGTJG03qDFSHSyP0tJkbEtG0nW0G9zNgrNHNe2nxXxDfAH9OhJeRGfW009PNJND_5eNvSKtlLwx-Yunvum5iwpiY0CO020-hpRjVHIPe3n9F9UYTo600G2A2xTq8I0VYnp8eh9g7QfkN3s58_fKbSRDKCPZgbJq7iW_rqLua-84e_VVND6z_5Y0jO0MOup3jtlvH-Fi395CnZWbqUKjUkU04EWmHwUNlqMkj2Y8ZA8f-g-FfWZFK5lhiW6-hwvAX6gthkfsNfMjkmL9VuLt267WTmlo2Cc41Xj9AgJ6AkvFoN3QVHAGwtDbSJgSqd3g3LUfK-1HcqklPKx-ZhVY3kdxJu_Gx2iXF3DUOM14d7REGYdiAE6mJutZa8_O2CMqKVjAM8CTjacIEfxcciZXD0sdH0gdJQ3Ln7Clif4p2wVQPyfQGy00OHYssWwdl3l5pkVIfk0Qd3hFkElDQmwqvo02UmikD9G8aNkygpqppcO6modDCoKOtzEUipmpMGOfvYIMqXY_gptBlA3AGmrpgMqgkTxLdbd5F5Ky515Xa9buLtjX2RECmwd0pbY5VQ_zVK7vvQeSCWqjT1FwJ76Z8Pt7T8gcpl4Qacni1ZDKDFDD3Odw2XY8cF5idtn4ZARs0THZMzYdfd6gs3xrY1ZLhjtK9V9wsRXzeAkvkbXSjwZoEtfTbJp66UtuRLK_cdhC346T5lvxLnpNkhbszgFJD-uWi5vwOIbM43gj88bOthjmNLUL1zmTwDrIBzuMBRmCpbInv7pVcb5qDFMvGrU-NRecU2FmRFLYuUnvLMshrMoROj1jwfudGz3h3lbUfK6ZDCu8-yde_CSAOPOz7l2sthYzvqV2dScEruXTh5pJmc233XeBQ3ef4x62phhFOPiELsKMKqRk9CosdpgO_Z0XBefoiNHdu1YzS9rdLltpv9QcsjJ6zMDec12XZySns1PJcSKP1fsuY2Nby3isrCPztJWO5vysgzm1XOeP5SEPT-wo-kBAurMrAS6dHE0uIqLCCXN3YX6BuNVaLDh00MPNseL4qr58sGyaCe1WxJ1xo3XxHXuj32futvNP64zdN77JSpxkX_2nOCEXrQqE1vHRdr9Z3Xe-9D3MWAbojfPr3KiecIHCoB513fxzO1-hnSfx4tpTiJdfj0ZfnMai1NwocnrD-yCCDPjr65lD1vYIjTUc3synGhqQc80yfKLeU5WU5DJ0QYzddo7B3vyVaTNtmsS8WuObgFSv2Ck4-ad3nZrg1aKFHV9OUJmHrFYPHJIc_dR62Q_9JWaycQWMEiVbVhBscGOkULVLSxrSdi9wtCwldVaoGtogceUgwVww2IqmYrDoaAEZ9wDfDNruugfdpDj_UTeEitQhz6x-6TYcptid_7zI8kmiiF8G_a2fJFUIrqT7qwq1wiEju8um6j2vus7nOIs3JUAWzASho4k9rUdyxHWaO0s-WVbqCZ0a1ESkJtVsl17rC9HJgC0e7aCds1scpSOO5tRUKFRW4NWzIZZWisq3OHrKgTfbSu2xdQnW98jPndyGMK64ULyrEtUkgHkzr5ytEZhjfZNSj2zQS1aaJGdRoonwQCn6JoTXe0syPeY6vrxFoG-NmsshxQMOglJ5ugHOGE8ySCa2BBWbcMkuzu7r9DsvqFsAjdPDQTJRDPHHFPz_-3nqsTwgiI2sQHGahFNtPQNj0ybmlyIfXdk9WvJUeRrrF-AgdotMg9lavztAjlj_Yt1WeEM68laD5lNEco8N66vPSEFZ67OWQhUc_0C0]--></g></svg>